# Blender v2.79 (sub 0) OBJ File: 'cofre-riggin.blend'
# www.blender.org
mtllib cofre-riggin_000020.mtl
o Cube
v -14.160668 -0.132543 11.719496
v -16.959360 -13.084471 13.857434
v -14.160669 -0.132541 -9.600722
v -16.959358 -35.999840 2.593937
v 14.160666 -0.132541 11.719497
v 16.959360 -13.066335 13.826344
v 14.160666 -0.132539 -9.600719
v 16.959362 -35.999836 2.593935
v -16.112902 -18.663509 17.424694
v -13.978459 -25.727337 19.105927
v -13.978459 -32.432796 15.810020
v -16.112900 -35.416435 9.190196
v 16.112904 -35.416431 9.190197
v 13.978463 -32.432793 15.810020
v 13.978463 -25.727329 19.105928
v 16.112902 -18.663506 17.424694
v -2.869009 -33.790665 1.567716
v -2.869008 -35.681000 5.413565
v -2.869008 -36.607960 0.182947
v -2.869008 -38.498291 4.028794
v 2.866003 -33.790665 1.567716
v 2.866004 -35.681000 5.413564
v 2.866004 -36.607960 0.182946
v 2.866004 -38.498291 4.028793
v -1.788716 -34.722591 -0.110896
v -1.788716 -36.253101 3.002887
v -1.788716 -35.835358 -0.657847
v -1.788716 -37.365864 2.455935
v 1.680877 -34.722591 -0.110896
v 1.680877 -36.253101 3.002886
v 1.680877 -35.835358 -0.657847
v 1.680877 -37.365864 2.455934
v 16.959358 -13.066332 -11.707569
v 16.959360 -13.084468 13.857431
v -16.959362 -13.066334 -11.707569
v -16.959360 -13.066338 13.826343
v 14.702733 -13.066335 12.127562
v 14.702734 -13.066332 -10.008787
v -14.702734 -13.066334 -10.008787
v -14.702735 -13.066338 12.127561
v 12.722109 -3.110893 10.636556
v 12.722108 -3.110891 -8.517779
v -12.722112 -3.110893 -8.517777
v -12.722111 -3.110895 10.636555
v -14.996385 -14.410650 13.205584
v -14.996382 -34.673664 3.245789
v 14.996386 -34.673660 3.245787
v 14.996383 -14.410647 13.205581
v -13.931534 -19.939043 16.746883
v -13.931534 -34.800430 9.442127
v 14.207762 -34.800426 9.442126
v 14.207762 -19.939041 16.746880
v -12.034634 -25.618753 17.607058
v -12.034634 -32.012154 14.464534
v 12.437048 -32.012154 14.464532
v 12.437048 -25.618748 17.607058
vt 0.010194 0.543182
vt 0.133831 0.523623
vt 0.133831 0.760675
vt 0.010194 0.741115
vt 0.800072 0.385910
vt 0.676781 0.405469
vt 0.676781 0.168417
vt 0.800072 0.187977
vt 0.914478 0.656413
vt 0.914478 0.431192
vt 0.969058 0.425276
vt 0.969058 0.662329
vt 0.989806 0.168417
vt 0.989806 0.405469
vt 0.935765 0.399553
vt 0.935765 0.174333
vt 0.452967 0.227644
vt 0.452967 0.452865
vt 0.399475 0.437947
vt 0.399475 0.242561
vt 0.328076 0.437947
vt 0.328076 0.242561
vt 0.274583 0.452865
vt 0.274583 0.227644
vt 0.274583 0.207837
vt 0.274583 0.009904
vt 0.478319 0.009904
vt 0.478319 0.207837
vt 0.840074 0.630454
vt 0.796106 0.578486
vt 0.796106 0.509120
vt 0.840074 0.457151
vt 0.274583 0.709724
vt 0.274583 0.472672
vt 0.398457 0.492231
vt 0.398457 0.690164
vt 0.651986 0.662329
vt 0.651986 0.425276
vt 0.775718 0.444836
vt 0.775718 0.642769
vt 0.208285 0.555497
vt 0.252372 0.607466
vt 0.252372 0.676832
vt 0.208285 0.728801
vt 0.579091 0.129680
vt 0.579091 0.169463
vt 0.549093 0.169463
vt 0.549093 0.129680
vt 0.539657 0.049985
vt 0.498707 0.049985
vt 0.498707 0.009904
vt 0.539657 0.009904
vt 0.448843 0.532560
vt 0.448843 0.572340
vt 0.418845 0.572340
vt 0.418845 0.532560
vt 0.539653 0.109873
vt 0.498707 0.109873
vt 0.498707 0.069792
vt 0.539653 0.069792
vt 0.528705 0.129680
vt 0.528705 0.169761
vt 0.498707 0.169761
vt 0.498707 0.129680
vt 0.418845 0.512753
vt 0.418845 0.472672
vt 0.448843 0.472672
vt 0.448843 0.512753
vt 0.599479 0.161890
vt 0.599479 0.129680
vt 0.611328 0.129680
vt 0.611328 0.161890
vt 0.560041 0.102003
vt 0.560041 0.069792
vt 0.585000 0.069792
vt 0.585000 0.102003
vt 0.605388 0.102000
vt 0.605388 0.069792
vt 0.617236 0.069792
vt 0.617236 0.102000
vt 0.560045 0.042111
vt 0.560045 0.009904
vt 0.585004 0.009904
vt 0.585004 0.042111
vt 0.617240 0.009904
vt 0.617240 0.034152
vt 0.605392 0.034152
vt 0.605392 0.009904
vt 0.599479 0.205946
vt 0.599479 0.181698
vt 0.611328 0.181698
vt 0.611328 0.205946
vt 0.894090 0.425276
vt 0.894090 0.662329
vt 0.154219 0.760675
vt 0.154219 0.523623
vt 0.010194 0.009904
vt 0.254195 0.009904
vt 0.237962 0.025675
vt 0.026427 0.025675
vt 0.010194 0.246956
vt 0.026427 0.231185
vt 0.254195 0.246956
vt 0.237962 0.231185
vt 0.651986 0.887646
vt 0.651986 0.682136
vt 0.747090 0.695978
vt 0.747090 0.873803
vt 0.915377 0.168417
vt 0.915377 0.373927
vt 0.820460 0.360085
vt 0.820460 0.182259
vt 0.862510 0.682136
vt 0.862510 0.887646
vt 0.767478 0.873804
vt 0.767478 0.695978
vt 0.473355 0.847254
vt 0.473355 0.641744
vt 0.568686 0.655587
vt 0.568686 0.833412
vt 0.254195 0.503815
vt 0.010194 0.503815
vt 0.024315 0.490096
vt 0.240074 0.490096
vt 0.010194 0.266763
vt 0.254195 0.266763
vt 0.240074 0.280482
vt 0.024315 0.280482
vt 0.380264 0.939146
vt 0.380264 0.729531
vt 0.434006 0.736973
vt 0.434006 0.933634
vt 0.063500 0.780482
vt 0.063500 0.990096
vt 0.010194 0.984585
vt 0.010194 0.787924
vt 0.359876 0.729531
vt 0.359876 0.939146
vt 0.306096 0.914826
vt 0.306096 0.761090
vt 0.968017 0.682136
vt 0.968017 0.891750
vt 0.914305 0.860192
vt 0.914305 0.706455
vt 0.473355 0.621937
vt 0.473355 0.425277
vt 0.518438 0.437652
vt 0.518439 0.608680
vt 0.274583 0.871027
vt 0.274583 0.804889
vt 0.882898 0.816392
vt 0.882898 0.750255
vt 0.631598 0.425276
vt 0.631598 0.621937
vt 0.586515 0.608680
vt 0.586515 0.437652
vt 0.473355 0.405469
vt 0.473355 0.227644
vt 0.656394 0.227644
vt 0.656394 0.405469
vn -0.0000 -0.1608 0.9870
vn 0.0000 -0.1608 -0.9870
vn 0.0000 -0.5387 -0.8425
vn -0.0000 0.9961 -0.0881
vn -0.0000 0.9117 -0.4109
vn -0.0000 0.4411 -0.8974
vn 0.0000 -0.2315 -0.9728
vn 0.0000 -1.0000 -0.0000
vn -0.9080 0.1848 -0.3761
vn -0.9774 -0.2115 0.0000
vn 0.9774 -0.2115 -0.0000
vn 0.9080 0.1848 -0.3761
vn 1.0000 0.0000 -0.0000
vn 0.0000 0.8974 0.4411
vn -1.0000 -0.0000 0.0000
vn -0.0000 -0.8974 -0.4411
vn 0.0000 -0.4411 0.8974
vn -0.9890 0.0652 -0.1327
vn 0.9890 0.0652 -0.1327
vn -0.0000 1.0000 0.0000
vn -0.0000 0.1481 0.9890
vn -0.9808 0.1951 0.0000
vn 0.9808 0.1951 0.0000
vn -0.0000 0.1481 -0.9890
vn 0.0000 0.5394 0.8421
vn 0.0000 -0.9998 -0.0205
vn -0.9825 -0.0822 0.1672
vn 0.9903 -0.0613 0.1248
vn 0.0000 -0.8743 0.4854
vn -0.8655 -0.2210 0.4496
vn 0.8798 -0.2097 0.4266
vn 0.0000 0.1497 0.9887
usemtl Material
s off
f 3/1/1 35/2/1 33/3/1 7/4/1
f 5/5/2 6/6/2 36/7/2 1/8/2
f 16/9/3 9/10/3 2/11/3 34/12/3
f 8/13/4 4/14/4 12/15/4 13/16/4
f 13/17/5 12/18/5 11/19/5 14/20/5
f 14/20/6 11/19/6 10/21/6 15/22/6
f 15/22/7 10/21/7 9/23/7 16/24/7
f 7/25/8 5/26/8 1/27/8 3/28/8
f 13/29/9 14/30/9 15/31/9 16/32/9
f 33/33/10 6/34/10 5/35/10 7/36/10
f 36/37/11 35/38/11 3/39/11 1/40/11
f 9/41/12 10/42/12 11/43/12 12/44/12
f 17/45/13 18/46/13 20/47/13 19/48/13
f 19/49/14 20/50/14 24/51/14 23/52/14
f 23/53/15 24/54/15 22/55/15 21/56/15
f 21/57/16 22/58/16 18/59/16 17/60/16
f 19/61/17 23/62/17 21/63/17 17/64/17
f 24/65/6 20/66/6 18/67/6 22/68/6
f 25/69/13 26/70/13 28/71/13 27/72/13
f 27/73/14 28/74/14 32/75/14 31/76/14
f 31/77/15 32/78/15 30/79/15 29/80/15
f 29/81/16 30/82/16 26/83/16 25/84/16
f 27/85/17 31/86/17 29/87/17 25/88/17
f 32/89/6 28/90/6 26/91/6 30/92/6
f 16/32/18 34/93/18 8/94/18 13/29/18
f 12/44/19 4/95/19 2/96/19 9/41/19
f 36/97/20 6/98/20 37/99/20 40/100/20
f 35/101/20 36/97/20 40/100/20 39/102/20
f 6/98/20 33/103/20 38/104/20 37/99/20
f 33/103/20 35/101/20 39/102/20 38/104/20
f 40/105/21 37/106/21 41/107/21 44/108/21
f 39/109/22 40/110/22 44/111/22 43/112/22
f 37/113/23 38/114/23 42/115/23 41/116/23
f 38/117/24 39/118/24 43/119/24 42/120/24
f 34/121/17 2/122/17 45/123/17 48/124/17
f 4/125/17 8/126/17 47/127/17 46/128/17
f 2/122/17 4/125/17 46/128/17 45/123/17
f 8/126/17 34/121/17 48/124/17 47/127/17
f 48/129/25 45/130/25 49/131/25 52/132/25
f 46/133/26 47/134/26 51/135/26 50/136/26
f 45/137/27 46/138/27 50/139/27 49/140/27
f 47/141/28 48/142/28 52/143/28 51/144/28
f 50/145/29 51/146/29 55/147/29 54/148/29
f 49/140/30 50/139/30 54/149/30 53/150/30
f 51/144/31 52/143/31 56/151/31 55/152/31
f 52/153/32 49/154/32 53/155/32 56/156/32
f 54/148/17 55/147/17 56/156/17 53/155/17
f 44/157/20 41/158/20 42/159/20 43/160/20
