# Blender v2.79 (sub 7) OBJ File: ''
# www.blender.org
mtllib caja.mtl
o caja_Cube
v -14.882373 -0.071657 14.882372
v -14.882373 -0.071656 -14.882373
v 14.882374 -0.071656 -14.882370
v 14.882368 -0.071657 14.882378
v -14.882380 -29.836401 14.882364
v 14.882372 -29.836401 14.882372
v 14.882378 -29.836401 -14.882369
v -14.882362 -29.836401 -14.882382
vt 0.017857 0.684524
vt 0.315476 0.684524
vt 0.315476 0.982143
vt 0.017857 0.982143
vt 0.648809 0.351191
vt 0.648809 0.648810
vt 0.351191 0.648809
vt 0.351190 0.351191
vt 0.648810 0.315476
vt 0.351191 0.315476
vt 0.351190 0.017857
vt 0.648809 0.017857
vt 0.017857 0.315476
vt 0.017857 0.017857
vt 0.315476 0.017857
vt 0.315476 0.315476
vt 0.315476 0.648810
vt 0.017857 0.648810
vt 0.017857 0.351191
vt 0.315476 0.351191
vt 0.684524 0.017857
vt 0.982143 0.017857
vt 0.982143 0.315476
vt 0.684524 0.315476
vn 0.0000 -1.0000 -0.0000
vn 0.0000 1.0000 0.0000
vn 1.0000 -0.0000 0.0000
vn -0.0000 -0.0000 1.0000
vn -1.0000 -0.0000 -0.0000
vn 0.0000 0.0000 -1.0000
usemtl Material.001
s 1
f 1/1/1 2/2/1 3/3/1 4/4/1
f 5/5/2 6/6/2 7/7/2 8/8/2
f 1/9/3 5/10/3 8/11/3 2/12/3
f 2/13/4 8/14/4 7/15/4 3/16/4
f 3/17/5 7/18/5 6/19/5 4/20/5
f 5/21/6 1/22/6 4/23/6 6/24/6
