# Blender v2.79 (sub 7) OBJ File: ''
# www.blender.org
mtllib cama.mtl
o Cube.001
v 34.818626 -11.158832 -17.765970
v 37.549149 -11.158832 -17.765970
v 37.276093 -2.890130 -17.587400
v 35.091682 -2.890130 -17.587400
v 37.549141 -14.431382 17.317526
v 37.549160 -14.431382 -17.765970
v 33.592808 -14.445264 -15.947719
v 33.592793 -14.445264 15.518713
v -30.541571 -14.431382 -17.765987
v -30.541613 -14.431382 17.317516
v -28.120449 -14.445264 15.518704
v -28.120440 -14.445264 6.771132
v -28.120430 -14.445264 -6.162904
v -28.120415 -14.445264 -15.947737
v -30.541595 -11.158832 17.317522
v -28.265030 -11.158832 17.317522
v 34.818607 -11.158832 17.317530
v 37.549137 -11.158832 17.317530
v -28.265030 -11.158832 -15.980268
v -28.265030 -11.158832 -17.765976
v 34.818626 -11.158832 -15.980264
v -28.265030 -11.158832 15.984149
v -28.492685 -2.890132 17.184185
v -28.492685 -2.890132 16.117489
v -30.541595 -11.158832 15.984149
v -30.541595 -11.158832 -15.980268
v 34.818607 -11.158832 15.984157
v 37.549149 -11.158832 -15.980264
v 37.549137 -11.158832 15.984157
v 35.091663 -2.890132 17.184195
v 37.276081 -2.890132 17.184195
v 37.276081 -2.890132 16.117496
v 35.091663 -2.890132 16.117496
v 35.091682 -2.890130 -16.158833
v 37.276093 -2.890130 -16.158833
v -30.313936 -2.890130 -16.158836
v -30.313936 -2.890130 -17.587406
v -28.492685 -2.890130 -17.587406
v -28.492685 -2.890130 -16.158836
v -30.313936 -2.890132 17.184185
v -30.313936 -2.890132 16.117489
v -30.541595 -11.158832 -17.765976
v -12.992955 -20.433208 5.473924
v -12.992947 -20.433208 -5.848584
v -12.992949 -22.944103 -1.491416
v -12.992963 -20.433208 12.609967
v -9.668665 -20.433208 14.322803
v 31.143785 -20.433208 14.322811
v 31.143791 -20.433208 -14.346116
v -9.668633 -20.433208 -14.346128
v -12.992934 -20.433208 -12.633296
v -22.015045 -20.433208 14.322802
v -24.365677 -20.433208 13.821125
v -26.794653 -20.433208 14.854401
v -16.317232 -20.433208 -14.346128
v -22.015011 -20.433208 -14.346128
v -22.015011 -22.008415 -14.346128
v -16.317232 -22.008415 -14.346128
v -16.317265 -20.433208 14.322802
v -16.317265 -22.381859 14.322802
v -22.015045 -22.381859 14.322802
v -12.992942 -23.065384 -8.363003
v -12.992934 -22.008415 -12.633296
v -13.966600 -22.243481 -12.633296
v -13.966608 -23.300446 -8.363003
v -25.339314 -20.433208 -12.633296
v -24.365644 -20.433208 -13.844452
v -26.794619 -20.433208 -15.058073
v -13.966598 -20.433208 -13.844452
v -26.794638 -20.433208 -6.022390
v -25.339331 -20.433208 -5.848584
v -13.966631 -20.433208 13.821125
v -25.339344 -22.381859 12.609967
v -24.365677 -22.381859 13.821124
v -23.934328 -22.573780 13.598870
v -24.365677 -22.616920 12.609966
v -22.015045 -22.616920 13.821124
v -22.015045 -22.714287 12.609967
v -25.339314 -22.008415 -12.633296
v -24.365648 -22.243481 -12.633296
v -23.934298 -22.200344 -13.622200
v -24.365646 -22.008415 -13.844451
v -22.015011 -22.340847 -12.633296
v -22.015011 -22.243481 -13.844451
v -12.992963 -22.381859 12.609967
v -13.966627 -22.616920 12.609966
v -14.397978 -22.573780 13.598870
v -13.966631 -22.381859 13.821124
v -16.317263 -22.714287 12.609967
v -16.317265 -22.616920 13.821124
v -13.966598 -22.008415 -13.844451
v -14.397947 -22.200344 -13.622200
v -16.317232 -22.243481 -13.844451
v -16.317234 -22.340847 -12.633296
v -25.339344 -20.433208 12.609967
v -27.185160 -20.090477 -15.320144
v -27.185183 -20.090477 -6.063781
v 32.633156 -20.090477 -15.320125
v 32.232422 -20.433208 -15.058055
v 33.592793 -18.443672 15.518713
v 33.592808 -18.443672 -15.947719
v 32.232403 -20.433208 14.854408
v -28.120449 -18.443672 15.518704
v -28.120440 -18.443672 6.771132
v -28.120415 -18.443672 -15.947737
v 32.633144 -20.090477 15.050094
v -27.185194 -20.090477 15.050086
v -27.185188 -20.090477 6.586384
v -28.120430 -18.443672 -6.162903
v -26.794643 -20.433208 6.509238
v -16.317261 -23.022686 10.924683
v -22.015041 -23.022686 10.924683
v -22.015024 -23.397816 -8.363003
v -16.317242 -23.397816 -8.363003
v -25.339338 -20.433208 5.473924
v -25.339342 -22.690258 10.924680
v -25.339338 -22.408588 5.473924
v -25.339334 -23.687740 -1.491416
v -25.339331 -22.914791 -5.848584
v -12.992960 -22.690258 10.924688
v -24.365658 -23.300446 -8.363003
v -25.339323 -23.065384 -8.363003
v -24.365677 -22.925320 10.924681
v -13.966626 -22.925320 10.924684
v -25.339338 -23.395584 5.140020
v -12.992955 -22.651951 5.140022
v -16.317249 -22.941471 -1.491416
v -22.015032 -22.941471 -1.116850
v -22.015038 -22.649311 5.140020
v -16.317255 -22.649311 5.140020
v -24.365665 -23.922806 -1.491416
v -24.365669 -23.630646 5.140020
v -13.966619 -22.844101 -1.491416
v -13.966621 -22.551949 5.140020
v -25.339331 -23.505455 -5.418563
v -12.992947 -23.505455 -5.418563
v -16.317247 -23.837883 -5.418563
v -13.966614 -23.740520 -5.418563
v -24.365662 -23.740520 -5.418563
v -22.015030 -23.837883 -5.418564
vt 0.252676 0.268869
vt 0.244371 0.268869
vt 0.245202 0.012714
vt 0.251846 0.012714
vt 0.012426 0.607771
vt 0.012467 0.395876
vt 0.024505 0.406860
vt 0.024468 0.596910
vt 0.219479 0.395875
vt 0.219437 0.607771
vt 0.212090 0.596909
vt 0.212101 0.544076
vt 0.212116 0.465958
vt 0.212128 0.406860
vt 0.219520 0.012714
vt 0.219520 0.114170
vt 0.212596 0.114170
vt 0.020730 0.114170
vt 0.012426 0.114170
vt 0.012426 0.012714
vt 0.251295 0.406502
vt 0.251295 0.395716
vt 0.443161 0.395716
vt 0.443161 0.406502
vt 0.950027 0.330123
vt 0.957897 0.330123
vt 0.957617 0.585603
vt 0.951322 0.585603
vt 0.244371 0.599564
vt 0.244371 0.406502
vt 0.251295 0.599564
vt 0.443161 0.599564
vt 0.451466 0.406502
vt 0.451466 0.599564
vt 0.019900 0.370447
vt 0.013256 0.370447
vt 0.251295 0.607617
vt 0.443161 0.607617
vt 0.945238 0.611031
vt 0.953543 0.611031
vt 0.952712 0.867211
vt 0.946068 0.867211
vt 0.476317 0.395331
vt 0.683382 0.395331
vt 0.683578 0.496476
vt 0.675708 0.496476
vt 0.487052 0.496476
vt 0.476513 0.496476
vt 0.714997 0.356265
vt 0.714997 0.364893
vt 0.708353 0.364893
vt 0.708353 0.356265
vt 0.313932 0.850527
vt 0.313932 0.859155
vt 0.308393 0.859155
vt 0.308393 0.850527
vt 0.345080 0.857325
vt 0.338784 0.857325
vt 0.338784 0.850527
vt 0.345080 0.850527
vt 0.375471 0.850527
vt 0.375471 0.856970
vt 0.369932 0.856970
vt 0.369932 0.850527
vt 0.920387 0.866903
vt 0.909846 0.866903
vt 0.911162 0.611031
vt 0.919594 0.611031
vt 0.476317 0.114016
vt 0.484187 0.114016
vt 0.483141 0.369903
vt 0.476844 0.369903
vt 0.947929 0.012714
vt 0.955799 0.012714
vt 0.954752 0.268586
vt 0.948456 0.268586
vt 0.914637 0.330123
vt 0.925176 0.330123
vt 0.924630 0.585603
vt 0.916198 0.585603
vt 0.683300 0.751940
vt 0.677005 0.751939
vt 0.980650 0.012714
vt 0.987574 0.012714
vt 0.986882 0.268894
vt 0.981343 0.268894
vt 0.218828 0.370447
vt 0.213288 0.370447
vt 0.914773 0.012714
vt 0.923077 0.012714
vt 0.922247 0.268968
vt 0.915603 0.268968
vt 0.451466 0.268869
vt 0.444542 0.268869
vt 0.445234 0.012714
vt 0.450773 0.012714
vt 0.486508 0.751939
vt 0.478076 0.751939
vt 0.978394 0.611031
vt 0.985318 0.611031
vt 0.984626 0.867284
vt 0.979086 0.867284
vt 0.672861 0.114016
vt 0.683401 0.114016
vt 0.682088 0.369903
vt 0.673655 0.369903
vt 0.451466 0.370288
vt 0.244371 0.370288
vt 0.808676 0.870576
vt 0.808676 0.938953
vt 0.732832 0.912794
vt 0.871747 0.653999
vt 0.881857 0.664342
vt 0.881857 0.791301
vt 0.712632 0.791266
vt 0.712632 0.664307
vt 0.722742 0.653968
vt 0.762791 0.653976
vt 0.829624 0.653990
vt 0.881857 0.625935
vt 0.878896 0.618622
vt 0.884995 0.611067
vt 0.839907 0.284690
vt 0.822578 0.284690
vt 0.822578 0.235873
vt 0.839907 0.235873
vt 0.614193 0.777368
vt 0.631523 0.777368
vt 0.631523 0.837780
vt 0.614193 0.837780
vt 0.729168 0.954299
vt 0.761095 0.980022
vt 0.753649 0.979986
vt 0.721722 0.954262
vt 0.722742 0.615561
vt 0.715593 0.618588
vt 0.708429 0.611031
vt 0.712632 0.643625
vt 0.715593 0.650938
vt 0.712632 0.625900
vt 0.761765 0.611042
vt 0.762791 0.615569
vt 0.878896 0.650971
vt 0.881857 0.643659
vt 0.523240 0.937101
vt 0.522935 0.944445
vt 0.516994 0.943110
vt 0.515824 0.937123
vt 0.614193 0.845331
vt 0.608356 0.844111
vt 0.607044 0.838044
vt 0.283521 0.875649
vt 0.283542 0.882876
vt 0.277714 0.881495
vt 0.276393 0.875562
vt 0.534538 0.784653
vt 0.527122 0.784675
vt 0.528292 0.778717
vt 0.534233 0.777368
vt 0.244371 0.875649
vt 0.251541 0.875565
vt 0.250239 0.881498
vt 0.244392 0.882876
vt 0.815428 0.235597
vt 0.816740 0.229527
vt 0.822578 0.228312
vt 0.749815 0.827600
vt 0.742369 0.827564
vt 0.743519 0.821567
vt 0.749469 0.820235
vt 0.283521 0.857925
vt 0.276393 0.857838
vt 0.277714 0.851830
vt 0.283542 0.850527
vt 0.638672 0.838044
vt 0.637360 0.844111
vt 0.631523 0.845331
vt 0.760749 0.987286
vt 0.754799 0.985933
vt 0.839907 0.228312
vt 0.845744 0.229527
vt 0.847056 0.235597
vt 0.244371 0.857925
vt 0.244392 0.850527
vt 0.250239 0.851832
vt 0.251541 0.857841
vt 0.582193 0.784702
vt 0.581888 0.777417
vt 0.815428 0.284414
vt 0.808676 0.979926
vt 0.808330 0.987189
vt 0.847056 0.284414
vt 0.808676 0.827481
vt 0.808330 0.820116
vt 0.638672 0.777631
vt 0.582193 0.937162
vt 0.581888 0.944506
vt 0.607044 0.777631
vt 0.476417 0.012714
vt 0.683501 0.012714
vt 0.708353 0.072637
vt 0.708353 0.018065
vt 0.718844 0.016481
vt 0.718844 0.072386
vt 0.871747 0.615592
vt 0.254893 0.636032
vt 0.254893 0.822188
vt 0.244371 0.820973
vt 0.244371 0.637279
vt 0.769009 0.395576
vt 0.889785 0.395331
vt 0.889785 0.585358
vt 0.769009 0.585603
vt 0.884995 0.794688
vt 0.708429 0.794652
vt 0.194195 0.633199
vt 0.194195 0.825252
vt 0.073048 0.825252
vt 0.073048 0.633199
vt 0.889921 0.150052
vt 0.889921 0.202884
vt 0.768957 0.202759
vt 0.768957 0.149927
vt 0.426212 0.825099
vt 0.305109 0.825099
vt 0.305109 0.633045
vt 0.426212 0.633045
vt 0.718924 0.398457
vt 0.718924 0.581864
vt 0.708429 0.580281
vt 0.708429 0.399639
vt 0.718844 0.199905
vt 0.718844 0.148788
vt 0.022911 0.822266
vt 0.022911 0.636109
vt 0.012426 0.821019
vt 0.012426 0.637325
vt 0.768957 0.012714
vt 0.768957 0.071811
vt 0.889921 0.012839
vt 0.889921 0.071936
vt 0.708353 0.148323
vt 0.843738 0.827431
vt 0.843738 0.845163
vt 0.833528 0.845163
vt 0.833528 0.827431
vt 0.770011 0.328789
vt 0.787341 0.328789
vt 0.787341 0.363896
vt 0.770011 0.363896
vt 0.582193 0.894063
vt 0.513910 0.926913
vt 0.522431 0.894001
vt 0.835736 0.611057
vt 0.829624 0.615583
vt 0.582192 0.825679
vt 0.483733 0.851893
vt 0.507117 0.825602
vt 0.794490 0.331806
vt 0.794490 0.366913
vt 0.740499 0.837797
vt 0.495145 0.810433
vt 0.502561 0.810411
vt 0.836478 0.820116
vt 0.846688 0.820116
vt 0.733053 0.837760
vt 0.708353 0.198725
vt 0.846688 0.852478
vt 0.836478 0.852478
vt 0.492572 0.891953
vt 0.741657 0.872728
vt 0.780184 0.303334
vt 0.762863 0.301058
vt 0.763150 0.263333
vt 0.780473 0.263346
vt 0.762862 0.228312
vt 0.780185 0.228326
vt 0.738011 0.299079
vt 0.708866 0.308464
vt 0.708353 0.267397
vt 0.738011 0.260212
vt 0.721133 0.228312
vt 0.719114 0.228938
vt 0.476317 0.851915
vt 0.485156 0.891976
vt 0.506494 0.926935
vt 0.666777 0.877322
vt 0.663523 0.876597
vt 0.663523 0.835528
vt 0.666777 0.836253
vt 0.790577 0.263354
vt 0.787703 0.263373
vt 0.787415 0.228353
vt 0.790577 0.228407
vt 0.787414 0.303361
vt 0.489248 0.828180
vt 0.715875 0.936544
vt 0.681020 0.777368
vt 0.680999 0.784766
vt 0.663523 0.785149
vt 0.663544 0.777751
vt 0.822303 0.331808
vt 0.829452 0.328789
vt 0.829452 0.358645
vt 0.822303 0.361664
vt 0.708429 0.936508
vt 0.819341 0.339095
vt 0.819341 0.358563
vt 0.481832 0.828202
vt 0.680999 0.802490
vt 0.681020 0.809717
vt 0.663544 0.810100
vt 0.663523 0.802874
vt 0.717585 0.330837
vt 0.719604 0.330211
vt 0.846782 0.328789
vt 0.846782 0.358842
vt 0.762862 0.366913
vt 0.762862 0.331806
vn 0.0000 -0.0216 0.9998
vn 0.0011 1.0000 -0.0033
vn -0.0007 1.0000 0.0054
vn -0.0032 1.0000 0.0012
vn -0.0032 1.0000 -0.0009
vn -0.0002 1.0000 0.0054
vn 0.0023 1.0000 -0.0046
vn 0.0012 1.0000 -0.0033
vn 0.0000 0.0000 -1.0000
vn 0.0000 -1.0000 -0.0000
vn -0.9996 -0.0275 0.0000
vn 0.0000 -0.0161 -0.9999
vn 0.0000 -0.0161 0.9999
vn -1.0000 -0.0000 -0.0000
vn 0.9995 -0.0330 0.0000
vn 0.9996 -0.0275 0.0000
vn -0.9995 -0.0330 0.0000
vn 0.0000 -0.0216 -0.9998
vn -0.0000 -0.0000 1.0000
vn 0.0000 1.0000 -0.0000
vn -0.2282 0.9451 0.2339
vn 0.2590 0.9482 -0.1840
vn 0.0880 0.8801 -0.4666
vn 0.0365 0.9968 -0.0708
vn 0.2590 0.9482 0.1840
vn 0.0365 0.9968 0.0708
vn 0.0880 0.8801 0.4666
vn -0.2590 0.9482 -0.1840
vn -0.0365 0.9968 -0.0708
vn -0.0880 0.8801 -0.4666
vn -0.2590 0.9482 0.1840
vn -0.0880 0.8801 0.4666
vn -0.0365 0.9968 0.0708
vn 0.0000 0.9055 0.4243
vn 0.0000 0.9968 0.0801
vn 0.0000 0.9968 -0.0801
vn 0.0000 0.9055 -0.4243
vn 0.7794 -0.0000 0.6266
vn 0.2087 0.0000 0.9780
vn -0.7794 -0.0000 0.6266
vn -0.2087 0.0000 0.9780
vn -0.7794 -0.0000 -0.6266
vn -0.2087 0.0000 -0.9780
vn 0.7794 -0.0000 -0.6266
vn 0.2087 0.0000 -0.9780
vn 1.0000 0.0000 0.0000
vn 0.6596 0.7516 0.0000
vn -0.0000 0.6074 0.7944
vn -0.6500 0.7600 -0.0000
vn -0.8640 0.5035 -0.0000
vn 0.8696 0.4938 0.0000
vn -0.0000 0.3561 0.9344
vn 0.0000 0.2737 -0.9618
vn 0.0000 0.4958 -0.8684
vn 0.0000 0.9837 -0.1800
vn 0.0000 0.9707 0.2403
vn -0.0402 0.9699 0.2401
vn 0.2282 0.9451 0.2339
vn 0.0407 0.9829 -0.1799
vn -0.2310 0.9570 -0.1751
vn -0.0407 0.9828 -0.1799
vn -0.0015 0.9990 -0.0453
vn 0.0000 0.9979 0.0644
vn -0.3821 0.9232 -0.0419
vn -0.1847 0.9824 -0.0282
vn 0.2345 0.9712 -0.0428
vn 0.2330 0.9653 -0.1177
vn 0.1021 0.9938 -0.0438
vn -0.0691 0.9970 0.0355
vn -0.0413 0.9982 -0.0440
vn -0.0413 0.9971 0.0644
vn 0.2310 0.9570 -0.1751
vn -0.0409 0.9882 0.1477
vn -0.0403 0.9741 -0.2224
vn -0.2322 0.9620 0.1438
vn -0.0680 0.9809 -0.1821
vn 0.2322 0.9620 0.1438
vn 0.2344 0.9711 0.0451
vn 0.0409 0.9882 0.1477
vn -0.1776 0.9804 -0.0851
vn 0.0000 0.9890 0.1478
vn -0.0070 0.9771 -0.2129
vn 0.0402 0.9699 0.2401
usemtl Material.001
s 1
f 1/1/1 2/2/1 3/3/1 4/4/1
f 5/5/2 6/6/3 7/7/4 8/8/5
f 9/9/6 10/10/7 5/5/2 8/8/5 11/11/7 12/12/7 13/13/7 14/14/8
f 10/15/9 15/16/9 16/17/9 17/18/9 18/19/9 5/20/9
f 19/21/10 20/22/10 1/23/10 21/24/10
f 22/25/11 16/26/11 23/27/11 24/28/11
f 25/29/10 26/30/10 19/21/10 22/31/10
f 22/31/10 19/21/10 21/24/10 27/32/10
f 6/6/3 9/9/6 14/14/8 7/7/4
f 27/32/10 21/24/10 28/33/10 29/34/10
f 18/19/12 17/18/12 30/35/12 31/36/12
f 16/37/10 22/31/10 27/32/10 17/38/10
f 27/39/13 29/40/13 32/41/13 33/42/13
f 6/43/14 5/44/14 18/45/14 29/46/14 28/47/14 2/48/14
f 34/49/10 4/50/10 3/51/10 35/52/10
f 36/53/10 37/54/10 38/55/10 39/56/10
f 30/57/10 33/58/10 32/59/10 31/60/10
f 40/61/10 41/62/10 24/63/10 23/64/10
f 21/65/15 1/66/15 4/67/15 34/68/15
f 15/69/16 25/70/16 41/71/16 40/72/16
f 17/73/15 27/74/15 33/75/15 30/76/15
f 20/77/11 19/78/11 39/79/11 38/80/11
f 29/46/17 18/45/17 31/81/17 32/82/17
f 25/83/13 22/84/13 24/85/13 41/86/13
f 16/17/12 15/16/12 40/87/12 23/88/12
f 28/89/18 21/90/18 34/91/18 35/92/18
f 42/93/1 20/94/1 38/95/1 37/96/1
f 2/48/17 28/47/17 35/97/17 3/98/17
f 19/99/18 26/100/18 36/101/18 39/102/18
f 26/103/16 42/104/16 37/105/16 36/106/16
f 42/93/19 9/107/19 6/108/19 2/2/19 1/1/19 20/94/19
f 43/109/14 44/110/14 45/111/14
f 46/112/20 47/113/20 48/114/20 49/115/20 50/116/20 51/117/20 44/118/20 43/119/20
f 52/120/20 53/121/20 54/122/20
f 55/123/19 56/124/19 57/125/19 58/126/19
f 52/127/9 59/128/9 60/129/9 61/130/9
f 62/131/21 63/132/21 64/133/21 65/134/21
f 66/135/20 67/136/20 68/137/20
f 55/138/20 69/139/20 50/116/20
f 69/139/20 51/117/20 50/116/20
f 67/136/20 56/140/20 68/137/20
f 70/141/20 71/142/20 66/135/20 68/137/20
f 46/112/20 72/143/20 47/113/20
f 72/143/20 59/144/20 47/113/20
f 73/145/22 74/146/22 75/147/22 76/148/22
f 61/130/23 77/149/23 75/150/23 74/151/23
f 78/152/24 76/153/24 75/154/24 77/155/24
f 79/156/25 80/157/25 81/158/25 82/159/25
f 83/160/26 84/161/26 81/162/26 80/163/26
f 57/125/27 82/164/27 81/165/27 84/166/27
f 85/167/28 86/168/28 87/169/28 88/170/28
f 89/171/29 90/172/29 87/173/29 86/174/29
f 60/129/30 88/175/30 87/176/30 90/177/30
f 63/132/31 91/178/31 92/179/31 64/133/31
f 58/126/32 93/180/32 92/181/32 91/182/32
f 94/183/33 64/184/33 92/185/33 93/186/33
f 58/126/34 57/125/34 84/166/34 93/180/34
f 93/186/35 84/161/35 83/160/35 94/183/35
f 89/171/36 78/152/36 77/155/36 90/172/36
f 90/177/37 77/149/37 61/130/37 60/129/37
f 66/187/38 79/156/38 82/159/38 67/188/38
f 67/189/39 82/164/39 57/125/39 56/124/39
f 63/132/40 51/190/40 69/191/40 91/178/40
f 91/182/41 69/192/41 55/123/41 58/126/41
f 46/193/42 85/167/42 88/170/42 72/194/42
f 72/195/43 88/175/43 60/129/43 59/128/43
f 73/145/44 95/196/44 53/197/44 74/146/44
f 74/151/45 53/198/45 52/127/45 61/130/45
f 15/69/46 10/199/46 9/200/46 42/104/46 26/103/46 25/70/46
f 70/201/47 68/202/47 96/203/47 97/204/47
f 53/121/20 95/205/20 54/122/20
f 98/206/48 96/207/48 68/208/48 99/209/48
f 100/210/14 8/211/14 7/212/14 101/213/14
f 48/114/20 102/214/20 99/215/20 49/115/20
f 49/115/20 99/215/20 68/137/20 56/140/20 55/138/20 50/116/20
f 11/216/9 8/217/9 100/218/9 103/219/9
f 12/220/46 11/221/46 103/222/46 104/223/46
f 14/224/19 105/225/19 101/226/19 7/227/19
f 106/228/49 98/229/49 99/230/49 102/231/49
f 102/214/20 48/114/20 47/113/20 59/144/20 52/120/20 54/122/20
f 100/210/50 101/213/50 98/229/50 106/228/50
f 104/223/51 103/222/51 107/232/51 108/233/51
f 101/226/52 105/225/52 96/207/52 98/206/52
f 103/219/53 100/218/53 106/234/53 107/235/53
f 102/236/54 54/237/54 107/235/54 106/234/54
f 105/238/51 109/239/51 97/204/51 96/203/51
f 14/240/46 13/241/46 109/239/46 105/238/46
f 110/242/47 70/201/47 97/204/47 108/233/47
f 44/110/14 51/190/14 63/132/14 62/131/14
f 78/243/55 89/244/55 111/245/55 112/246/55
f 113/247/56 114/248/56 94/249/56 83/250/56
f 115/251/46 95/196/46 73/145/46 116/252/46 117/253/46
f 110/254/20 115/255/20 71/142/20 70/141/20
f 71/256/46 115/251/46 117/253/46 118/257/46 119/258/46
f 65/259/57 64/260/57 94/249/57 114/248/57
f 46/193/14 43/109/14 120/261/14 85/167/14
f 121/262/58 80/157/58 79/156/58 122/263/58
f 54/122/20 95/205/20 115/255/20 110/254/20
f 66/187/46 71/256/46 119/258/46 122/263/46 79/156/46
f 78/243/59 112/246/59 123/264/59 76/265/59
f 85/167/60 120/261/60 124/266/60 86/168/60
f 54/267/47 110/242/47 108/233/47 107/232/47
f 109/239/51 104/223/51 108/233/51 97/204/51
f 13/241/46 12/220/46 104/223/46 109/239/46
f 86/268/61 124/269/61 111/245/61 89/244/61
f 116/252/46 125/270/46 117/253/46
f 125/270/46 118/257/46 117/253/46
f 45/111/14 126/271/14 43/109/14
f 126/271/14 120/261/14 43/109/14
f 127/272/62 128/273/62 129/274/62 130/275/62
f 130/275/63 129/274/63 112/276/63 111/277/63
f 128/278/64 131/279/64 132/280/64 129/281/64
f 129/281/65 132/280/65 123/282/65 112/283/65
f 131/284/66 118/257/66 125/270/66 132/285/66
f 132/285/67 125/270/67 116/252/67 123/286/67
f 45/287/68 133/288/68 134/289/68 126/290/68
f 126/291/69 134/292/69 124/293/69 120/294/69
f 133/295/70 127/272/70 130/275/70 134/292/70
f 134/292/71 130/275/71 111/277/71 124/293/71
f 76/148/72 123/286/72 116/252/72 73/145/72
f 118/257/46 135/296/46 119/258/46
f 135/296/46 122/263/46 119/258/46
f 62/131/14 136/297/14 44/110/14
f 136/297/14 45/111/14 44/110/14
f 65/298/73 114/299/73 137/300/73 138/301/73
f 138/302/74 137/303/74 127/304/74 133/305/74
f 62/131/75 65/134/75 138/306/75 136/297/75
f 136/307/76 138/302/76 133/305/76 45/308/76
f 121/262/77 122/263/77 135/296/77 139/309/77
f 139/309/78 135/296/78 118/257/78 131/284/78
f 113/310/79 121/311/79 139/312/79 140/313/79
f 140/314/80 139/315/80 131/279/80 128/278/80
f 114/299/81 113/310/81 140/313/81 137/300/81
f 137/303/82 140/316/82 128/317/82 127/304/82
f 113/247/83 83/250/83 80/318/83 121/319/83
