# Blender v2.79 (sub 7) OBJ File: 'cuadro.blend'
# www.blender.org
mtllib cuadro.mtl
o Cube
v -2.926266 17.557594 -14.631329
v 0.793487 15.316091 -12.763409
v 0.793487 15.316091 12.763411
v -2.926266 17.557594 14.631324
v -2.926265 -17.557594 -14.631335
v 0.793489 -15.316091 -12.763400
v 0.793487 -15.316091 12.763414
v -2.926265 -17.557594 14.631328
v 2.926265 17.557594 -14.631329
v 2.926266 17.557594 14.631330
v 2.926267 -17.557594 -14.631319
v 2.926265 -17.557594 14.631333
vt 0.995128 0.661812
vt 0.671539 0.661812
vt 0.671539 0.338188
vt 0.995128 0.338188
vt 0.004872 0.661812
vt 0.004872 0.338188
vt 0.328461 0.338188
vt 0.328461 0.661812
vt 0.338205 0.661812
vt 0.338206 0.338188
vt 0.661795 0.338188
vt 0.661794 0.661812
vt 0.672759 0.287163
vt 0.672759 0.004854
vt 0.956101 0.004854
vt 0.956101 0.287163
vt 0.339426 0.328479
vt 0.339426 0.004854
vt 0.663015 0.004854
vt 0.663015 0.328479
vt 0.004872 0.004854
vt 0.329681 0.004854
vt 0.329681 0.328479
vt 0.004872 0.328479
vt 0.263796 0.974488
vt 0.263796 0.692179
vt 0.383514 0.671521
vt 0.383514 0.995146
vt 0.254052 0.692179
vt 0.254052 0.974488
vt 0.134334 0.995146
vt 0.134334 0.671521
vt 0.124590 0.692179
vt 0.124590 0.974488
vt 0.004872 0.995146
vt 0.004872 0.671521
vt 0.393258 0.974488
vt 0.393258 0.692179
vt 0.512976 0.671521
vt 0.512976 0.995145
vn 0.0000 -1.0000 0.0000
vn 0.0000 1.0000 -0.0000
vn -0.0000 0.0000 1.0000
vn -1.0000 -0.0000 -0.0000
vn 0.0000 -0.0000 -1.0000
vn 1.0000 0.0000 0.0000
vn -0.7245 0.6893 0.0000
vn -0.6589 -0.0000 -0.7523
vn -0.6589 0.0000 0.7523
vn -0.7245 -0.6893 -0.0000
usemtl Material
s off
f 1/1/1 9/2/1 10/3/1 4/4/1
f 5/5/2 8/6/2 12/7/2 11/8/2
f 1/9/3 5/10/3 11/11/3 9/12/3
f 2/13/4 6/14/4 7/15/4 3/16/4
f 10/17/5 12/18/5 8/19/5 4/20/5
f 5/21/6 1/22/6 4/23/6 8/24/6
f 2/25/7 3/26/7 10/27/7 9/28/7
f 6/29/8 2/30/8 9/31/8 11/32/8
f 3/33/9 7/34/9 12/35/9 10/36/9
f 7/37/10 6/38/10 11/39/10 12/40/10
