# Blender v2.79 (sub 0) OBJ File: 'dbox.blend'
# www.blender.org
mtllib dbox.mtl
o Cube_Cube
v -25.630577 -46.490704 27.380156
v 25.630577 3.196629 27.380175
v 25.630577 -46.490704 27.380156
v -25.630577 3.196629 27.380175
v -25.630577 4.892559 25.630585
v 25.630577 4.892570 -25.630569
v 25.630577 4.892559 25.630585
v -25.630577 4.892570 -25.630569
v -27.380169 3.196629 25.630583
v -27.380169 -46.490685 -25.630590
v -27.380169 3.196640 -25.630571
v -27.380169 -46.490700 25.630564
v 25.630577 -48.186562 -25.630590
v -25.630577 -48.186577 25.630564
v 25.630577 -48.186577 25.630564
v -25.630577 -48.186562 -25.630590
v -25.630577 3.196640 -27.380163
v 25.630577 -46.490685 -27.380182
v 25.630577 3.196640 -27.380163
v -25.630577 -46.490685 -27.380182
v 27.380169 3.196629 25.630583
v 27.380169 3.196640 -25.630571
v 27.380169 -46.490700 25.630564
v 27.380169 -46.490685 -25.630590
vt 0.697795 0.419722
vt 0.981797 0.025282
vt 0.697795 0.025282
vt 0.981797 0.419722
vt 0.027897 0.038745
vt 0.311899 0.433185
vt 0.311899 0.038745
vt 0.027897 0.433185
vt 0.027897 0.510675
vt 0.311899 0.905115
vt 0.311899 0.510675
vt 0.027897 0.905115
vt 0.651694 0.433185
vt 0.367693 0.038745
vt 0.367693 0.433185
vt 0.651694 0.038745
vt 0.651694 0.905114
vt 0.367693 0.510675
vt 0.367693 0.905115
vt 0.651694 0.510675
vt 0.321592 0.038745
vt 0.311899 0.025282
vt 0.357999 0.965198
vt 0.364853 0.974718
vt 0.364853 0.955678
vt 0.027897 0.446648
vt 0.018203 0.433185
vt 0.018203 0.510675
vt 0.027897 0.497212
vt 0.357999 0.433185
vt 0.367693 0.446648
vt 0.367693 0.497212
vt 0.357999 0.510675
vt 0.311899 0.918577
vt 0.321592 0.905115
vt 0.367693 0.025282
vt 0.357999 0.038745
vt 0.321592 0.433185
vt 0.027897 0.025282
vt 0.972103 0.891652
vt 0.688101 0.905115
vt 0.972103 0.905115
vt 0.688101 0.891652
vt 0.311899 0.446648
vt 0.357999 0.905115
vt 0.311899 0.497212
vt 0.321592 0.510675
vt 0.697795 0.433185
vt 0.981797 0.433185
vt 0.651694 0.446648
vt 0.661388 0.433185
vt 0.661388 0.038745
vt 0.651694 0.025282
vt 0.972103 0.497212
vt 0.688101 0.497212
vn 0.0000 0.0000 -1.0000
vn 0.0000 -1.0000 -0.0000
vn 1.0000 -0.0000 0.0000
vn 0.0000 1.0000 0.0000
vn 0.0000 -0.0000 1.0000
vn -0.5713 -0.5893 -0.5713
vn -0.5713 -0.5893 0.5713
vn 0.5713 -0.5893 0.5713
vn 0.5713 -0.5893 -0.5713
vn -0.5713 0.5893 -0.5713
vn -0.5713 0.5894 0.5713
vn 0.5713 0.5894 0.5713
vn 0.5713 0.5893 -0.5713
vn -0.6960 -0.7180 -0.0000
vn 0.0000 -0.7180 -0.6960
vn -0.7071 0.0000 -0.7071
vn 0.0000 -0.7180 0.6960
vn -0.7071 -0.0000 0.7071
vn 0.6960 -0.7180 -0.0000
vn 0.7071 -0.0000 0.7071
vn 0.7071 0.0000 -0.7071
vn -0.6960 0.7180 0.0000
vn 0.0000 0.7180 -0.6960
vn 0.0000 0.7180 0.6960
vn 0.6960 0.7180 0.0000
vn -1.0000 0.0000 0.0000
usemtl Material.001
s 1
f 1/1/1 2/2/1 3/3/1
f 2/2/1 1/1/1 4/4/1
f 5/5/2 6/6/2 7/7/2
f 6/6/2 5/5/2 8/8/2
f 9/9/3 10/10/3 11/11/3
f 10/10/3 9/9/3 12/12/3
f 13/13/4 14/14/4 15/15/4
f 14/14/4 13/13/4 16/16/4
f 17/17/5 18/18/5 19/19/5
f 18/18/5 17/17/5 20/20/5
f 21/21/6 2/22/6 7/7/6
f 22/23/7 6/24/7 19/25/7
f 17/26/8 8/8/8 11/27/8
f 4/28/9 9/9/9 5/29/9
f 3/30/10 23/31/10 15/15/10
f 18/18/11 13/32/11 24/33/11
f 10/10/12 16/34/12 20/35/12
f 12/36/13 1/37/13 14/14/13
f 7/7/14 22/38/14 21/21/14
f 22/38/14 7/7/14 6/6/14
f 2/22/15 5/5/15 7/7/15
f 5/5/15 2/22/15 4/39/15
f 21/40/16 3/41/16 2/42/16
f 3/41/16 21/40/16 23/43/16
f 6/6/17 17/26/17 19/44/17
f 17/26/17 6/6/17 8/8/17
f 19/19/18 24/33/18 22/45/18
f 24/33/18 19/19/18 18/18/18
f 8/46/19 9/9/19 11/11/19
f 9/9/19 8/46/19 5/29/19
f 11/11/20 20/35/20 17/47/20
f 20/35/20 11/11/20 10/10/20
f 4/4/21 12/48/21 9/49/21
f 12/48/21 4/4/21 1/1/21
f 23/31/22 13/13/22 15/15/22
f 13/13/22 23/31/22 24/50/22
f 15/15/23 1/37/23 3/30/23
f 1/37/23 15/15/23 14/14/23
f 18/51/24 16/16/24 13/13/24
f 16/16/24 18/51/24 20/52/24
f 10/53/25 14/14/25 16/16/25
f 14/14/25 10/53/25 12/36/25
f 22/54/26 23/43/26 21/40/26
f 23/43/26 22/54/26 24/55/26
