# Blender v2.79 (sub 6) OBJ File: 'button.blend'
# www.blender.org
mtllib eika.mtl
o Plane
v 23.574862 -23.015938 -0.000006
v -23.574881 -23.015928 -0.000002
v -23.574862 19.158897 0.000006
v 23.574881 19.158888 0.000002
v 23.574862 -23.015938 -0.000006
v 23.574881 19.158888 0.000002
v -23.574862 19.158897 0.000006
v -23.574881 -23.015928 -0.000002
vt 0.000000 1.000000
vt 1.000000 1.000000
vt 1.000000 0.000000
vt 0.000000 0.000000
vt 0.000000 1.000000
vt 0.000000 0.000000
vt 1.000000 0.000000
vt 1.000000 1.000000
vn -0.0000 0.0000 -1.0000
vn 0.0000 -0.0000 1.0000
usemtl Material.001
s 1
f 1/1/1 2/2/1 3/3/1 4/4/1
f 5/5/2 6/6/2 7/7/2 8/8/2
f 4/4/2 3/3/2 7/7/2 6/6/2
f 2/2/2 1/1/2 5/5/2 8/8/2
f 3/3/2 2/2/2 8/8/2 7/7/2
f 1/1/2 4/4/2 6/6/2 5/5/2
