# Blender v2.79 (sub 7) OBJ File: 'espada2.blend1'
# www.blender.org
mtllib espada2.mtl
o Sphere.001
v -5.643928 0.965199 1.532562
v -3.664058 0.414021 2.061401
v -5.634217 1.056438 -1.115135
v -3.649531 0.550540 -1.900289
v -5.662447 -0.025055 1.498370
v -3.280500 0.424973 1.536439
v -5.652738 0.066185 -1.149327
v -3.269831 0.525232 -1.373023
v -3.628120 1.288850 -4.393660
v -5.619226 1.326296 -4.399672
v -5.643656 0.020029 -4.444775
v -3.652550 -0.017416 -4.438764
v -5.651691 1.021236 4.452954
v -3.660583 0.983790 4.458967
v -3.685014 -0.322475 4.413863
v -5.676120 -0.285030 4.407852
v 8.108725 0.192616 2.096943
v 8.123254 0.329135 -1.864746
v 10.969546 0.207209 0.124713
v -10.682942 0.989228 -0.565450
v -10.688471 0.937262 0.942584
v -10.696132 0.283841 -0.589805
v -10.701662 0.231875 0.918228
v -5.626527 1.662597 0.114005
v -3.635422 1.625151 0.120016
v -5.669333 -0.626183 0.034978
v -3.678226 -0.663629 0.040989
v 8.134439 1.247258 0.150156
v 8.097548 -0.725509 0.082041
v -10.678731 1.317215 0.083576
v -10.705012 -0.088044 0.035055
v -3.261619 1.199503 0.106720
v -3.288713 -0.249296 0.056695
vt 0.481907 0.771047
vt 0.479844 0.788845
vt 0.498831 0.839073
vt 0.513015 0.839599
vt 0.260278 0.649145
vt 0.255715 0.802573
vt 0.274270 0.761398
vt 0.123220 0.565996
vt 0.118506 0.551758
vt 0.062641 0.551925
vt 0.045433 0.565996
vt 0.513015 0.686102
vt 0.673141 0.865545
vt 0.665036 0.684636
vt 0.641341 0.684636
vt 0.639876 0.865545
vt 0.810222 0.767061
vt 0.840918 0.685493
vt 0.840918 0.841564
vt 0.041745 0.954119
vt 0.085623 0.953674
vt 0.085623 0.882613
vt 0.041745 0.883058
vt 0.469155 0.684784
vt 0.539870 0.192849
vt 0.469155 0.191674
vt 0.470002 0.335233
vt 0.540717 0.336408
vt 0.307534 0.761398
vt 0.304158 0.649145
vt 0.299593 0.886966
vt 0.255715 0.886520
vt 0.255715 0.957581
vt 0.299593 0.958026
vt 0.811546 0.148383
vt 0.827560 0.050205
vt 0.784450 0.041974
vt 0.778866 0.142144
vt 0.827560 0.201484
vt 0.540717 0.043149
vt 0.470002 0.041974
vt 0.331999 0.144632
vt 0.319731 0.041974
vt 0.255715 0.144753
vt 0.332826 0.551249
vt 0.276803 0.551338
vt 0.117814 0.145320
vt 0.041745 0.145547
vt 0.911050 0.140938
vt 0.927443 0.041974
vt 0.927443 0.190680
vt 0.106091 0.041974
vt 0.958255 0.304349
vt 0.944187 0.274627
vt 0.920492 0.274627
vt 0.911050 0.304349
vt 0.843487 0.601546
vt 0.838996 0.420356
vt 0.815301 0.420356
vt 0.810222 0.601546
vt 0.501829 0.599713
vt 0.509605 0.420356
vt 0.492447 0.420963
vt 0.469155 0.600836
vt 0.679691 0.600095
vt 0.685457 0.420356
vt 0.660890 0.420675
vt 0.639876 0.600688
vt 0.726733 0.600688
vt 0.710360 0.420675
vt 0.556386 0.600836
vt 0.542131 0.420963
vt 0.948191 0.326081
vt 0.924496 0.326081
vt 0.172225 0.142221
vt 0.158466 0.549482
vt 0.372238 0.550060
vt 0.385665 0.143014
vt 0.337787 0.565198
vt 0.259673 0.565198
vt 0.074979 0.717629
vt 0.076239 0.699579
vt 0.055767 0.649943
vt 0.041745 0.650042
vt 0.624652 0.333974
vt 0.695376 0.334247
vt 0.694930 0.196227
vt 0.624207 0.195954
vt 0.046682 0.798666
vt 0.090562 0.798666
vt 0.118630 0.650042
vt 0.332600 0.802573
vt 0.695376 0.042247
vt 0.624652 0.041974
vn -0.6440 -0.6827 0.3452
vn 0.9998 -0.0188 0.0030
vn -0.6413 -0.6571 -0.3961
vn -0.9998 0.0188 -0.0030
vn 0.1159 0.0321 -0.9927
vn -0.0037 -0.0344 0.9994
vn -0.0190 -0.9971 0.0743
vn 0.0037 0.0344 -0.9994
vn -0.0182 -0.9891 -0.1463
vn -0.2813 0.8453 0.4542
vn 0.0357 0.8785 0.4764
vn 0.0055 -0.8793 -0.4763
vn -0.3101 -0.8342 -0.4560
vn 0.1086 -0.0363 0.9934
vn 0.0594 -0.8939 0.4442
vn 0.0941 0.9266 -0.3641
vn 0.0924 0.8577 0.5058
vn 0.0596 -0.9026 -0.4263
vn -0.3132 -0.8635 0.3952
vn 0.0022 -0.9100 0.4146
vn 0.0389 0.9092 -0.4145
vn -0.2782 0.8747 -0.3970
vn -0.6203 0.6794 0.3920
vn -0.6176 0.7049 -0.3489
vn 0.0190 0.9968 -0.0777
vn 0.0182 0.9896 0.1429
usemtl Sword2
s off
f 4/1/1 8/2/1 32/3/1 25/4/1
f 10/5/2 24/6/2 3/7/2
f 25/8/3 32/9/3 6/10/3 2/11/3
f 25/4/4 9/12/4 4/1/4
f 5/13/5 23/14/5 21/15/5 1/16/5
f 4/17/4 12/18/4 27/19/4
f 10/20/6 11/21/6 12/22/6 9/23/6
f 12/24/4 4/1/4 9/12/4
f 25/25/7 24/26/7 10/27/7 9/28/7
f 7/29/2 11/30/2 10/5/2 3/7/2
f 16/31/8 13/32/8 14/33/8 15/34/8
f 1/35/2 13/36/2 16/37/2 5/38/2
f 13/36/2 1/35/2 24/39/2
f 24/26/9 25/25/9 14/40/9 13/41/9
f 29/42/10 19/43/10 18/44/10
f 33/45/11 29/42/11 18/44/11 8/46/11
f 32/9/12 28/47/12 17/48/12 6/10/12
f 5/49/2 16/50/2 26/51/2
f 28/47/13 19/52/13 17/48/13
f 30/53/2 21/54/2 23/55/2 31/56/2
f 3/57/14 20/58/14 22/59/14 7/60/14
f 24/61/15 30/62/15 20/63/15 3/64/15
f 26/65/16 31/66/16 23/67/16 5/68/16
f 7/69/17 22/70/17 31/66/17 26/65/17
f 1/71/18 21/72/18 30/62/18 24/61/18
f 20/73/2 30/53/2 31/56/2 22/74/2
f 18/75/19 19/52/19 28/47/19
f 8/76/20 18/75/20 28/47/20 32/9/20
f 6/77/21 17/78/21 29/42/21 33/45/21
f 17/78/22 19/43/22 29/42/22
f 27/79/23 33/45/23 8/46/23 4/80/23
f 2/81/24 6/82/24 33/83/24 27/84/24
f 16/85/25 15/86/25 27/87/25 26/88/25
f 27/84/4 15/89/4 2/81/4
f 2/81/4 14/90/4 25/91/4
f 14/90/4 2/81/4 15/89/4
f 7/29/2 26/92/2 11/30/2
f 12/93/26 11/94/26 26/88/26 27/87/26
