# Blender v2.79 (sub 7) OBJ File: ''
# www.blender.org
mtllib flag.mtl
o Plane
v -15.557306 -71.495186 0.000001
v -15.557312 -0.087391 -0.000000
v 15.557306 -0.087391 -0.000002
v 15.557312 -71.495186 -0.000001
v -17.197901 -69.925545 0.672257
v -17.197449 -72.244461 2.357051
v -17.197901 -74.563377 0.672258
v -17.198627 -73.677628 -2.053795
v -17.198627 -70.811295 -2.053794
v 20.683434 -69.925537 0.672256
v 20.683886 -72.244453 2.357049
v 20.683434 -74.563370 0.672256
v 20.682707 -73.677628 -2.053796
v 20.682707 -70.811287 -2.053797
v -20.343798 -70.811295 -2.051767
v -20.343798 -73.677635 -2.051767
v 17.537535 -70.811295 -2.051769
v 17.537537 -73.677628 -2.051770
v -17.385323 -70.617050 0.449297
v 17.568539 -70.617050 0.447873
v 17.560425 -71.238663 -1.465259
v -17.393435 -71.238663 -1.463835
v 17.538265 -69.925545 0.674283
v 17.560425 -73.250252 -1.465260
v -17.393421 -73.250252 -1.463836
v 17.573563 -72.244461 1.630254
v 17.568539 -73.871864 0.447873
v -17.385292 -73.871872 0.449297
v 17.538721 -72.244461 2.359076
v 17.538267 -74.563377 0.674283
v -17.380270 -72.244461 1.631678
v -20.343067 -69.925545 0.674285
v -20.342615 -72.244461 2.359079
v -20.343067 -74.563377 0.674284
vt 0.000000 0.874966
vt 0.870125 0.874965
vt 0.870125 0.000000
vt 0.000000 0.000000
vt 0.458827 0.922343
vt 0.468519 0.999002
vt 0.499883 0.999002
vt 0.509575 0.922343
vt 0.484201 0.874966
vt 0.408484 0.925183
vt 0.427713 1.000000
vt 0.458827 0.996022
vt 0.458827 0.918747
vt 0.427713 0.874966
vt 0.642965 0.874966
vt 0.611601 0.874966
vt 0.611601 0.963410
vt 0.642965 0.963410
vt 0.580237 0.963410
vt 0.611601 0.963410
vt 0.611601 0.874966
vt 0.580237 0.874966
vt 0.924057 0.000226
vt 0.870125 0.000000
vt 0.870125 0.982928
vt 0.924057 0.983154
vt 0.230544 0.874966
vt 0.153696 0.874994
vt 0.153696 0.963439
vt 0.230544 0.963410
vt 1.000000 0.000000
vt 0.977989 0.000000
vt 0.977989 0.982927
vt 1.000000 0.982927
vt 0.544906 0.910208
vt 0.558401 0.962715
vt 0.580237 0.959923
vt 0.580237 0.905691
vt 0.558401 0.874966
vt 0.924057 0.000226
vt 0.924057 0.983153
vt 0.326622 1.000000
vt 0.357736 0.956219
vt 0.357736 0.878943
vt 0.326622 0.874966
vt 0.307392 0.949783
vt 0.307392 0.874994
vt 0.230544 0.874966
vt 0.230544 0.963410
vt 0.307392 0.963439
vt 0.523070 0.962715
vt 0.544906 0.931989
vt 0.544906 0.877757
vt 0.523071 0.874966
vt 0.509575 0.927472
vt 0.076848 0.874966
vt 0.000000 0.874994
vt 0.000000 0.963439
vt 0.076848 0.963410
vt 0.383110 0.874966
vt 0.357736 0.922343
vt 0.367428 0.999002
vt 0.398792 0.999002
vt 0.408484 0.922343
vt 0.153696 0.874994
vt 0.076848 0.874966
vt 0.076848 0.963410
vt 0.153696 0.963439
vn 0.0000 0.0000 1.0000
vn -1.0000 -0.0000 0.0003
vn 0.0006 -0.0000 1.0000
vn 0.0000 -0.9511 0.3090
vn 0.0002 -0.9511 0.3090
vn -1.0000 -0.0000 0.0042
vn 0.0000 0.9511 0.3090
vn 1.0000 0.0000 -0.0003
vn 0.0002 0.9511 0.3090
vn 1.0000 0.0000 -0.0042
usemtl Material.001
s 1
f 1/1/1 4/2/1 3/3/1 2/4/1
f 5/5/2 9/6/2 8/7/2 7/8/2 6/9/2
f 10/10/2 14/11/2 13/12/2 12/13/2 11/14/2
f 15/15/3 16/16/3 8/17/3 9/18/3
f 17/19/3 18/20/3 13/21/3 14/22/3
f 19/23/4 22/24/4 21/25/4 20/26/4
f 23/27/5 17/28/5 14/29/5 10/30/5
f 22/31/1 25/32/1 24/33/1 21/34/1
f 20/35/6 21/36/6 24/37/6 27/38/6 26/39/6
f 25/32/7 28/40/7 27/41/7 24/33/7
f 29/42/8 30/43/8 18/44/8 17/45/8 23/46/8
f 18/47/9 30/48/9 12/49/9 13/50/9
f 31/51/10 28/52/10 25/53/10 22/54/10 19/55/10
f 32/56/5 15/57/5 9/58/5 5/59/5
f 33/60/8 34/61/8 16/62/8 15/63/8 32/64/8
f 16/65/9 34/66/9 7/67/9 8/68/9
