# Blender v2.79 (sub 7) OBJ File: 'grilletes.blend'
# www.blender.org
mtllib grilletes.mtl
o grilletes_Cube.001
v -6.374393 -0.476951 -0.260212
v -6.374393 -13.225737 -0.260212
v -3.294661 -3.556682 -2.809969
v -3.294661 -10.146005 -2.809969
v 6.374393 -0.476951 -0.260212
v 6.374393 -13.225737 -0.260212
v 3.294661 -3.556682 -2.809969
v 3.294661 -10.146005 -2.809969
v -6.374393 -13.225737 -2.809969
v -6.374393 -0.476951 -2.809969
v 6.374393 -0.476951 -2.809969
v 6.374393 -13.225737 -2.809969
v -1.211548 -8.062891 -3.580942
v -1.211548 -5.639796 -3.580942
v 1.211548 -5.639796 -3.580942
v 1.211548 -8.062891 -3.580942
v -1.211548 -8.062891 -6.614236
v -1.211548 -5.639796 -6.614236
v 1.211548 -5.639796 -6.614236
v 1.211548 -8.062891 -6.614236
v -2.441896 -9.293240 -9.081234
v -2.441896 -4.409448 -9.081234
v 2.441896 -4.409448 -9.081234
v 2.441896 -9.293240 -9.081234
v -0.580473 21.581308 -17.074047
v -0.580473 21.581308 -10.742082
v 1.454581 22.322006 -17.074047
v 1.454581 22.322006 -10.742082
v 2.537411 24.197523 -17.074047
v 2.537411 24.197523 -10.742082
v 2.161348 26.330282 -17.074047
v 2.161348 26.330282 -10.742082
v 0.502356 27.722338 -17.074047
v 0.502356 27.722338 -10.742082
v -1.663303 27.722338 -17.074047
v -1.663303 27.722338 -10.742082
v -3.322294 26.330282 -17.074047
v -3.322294 26.330282 -10.742082
v -3.698357 24.197523 -17.074047
v -3.698357 24.197523 -10.742082
v -2.615528 22.322006 -17.074047
v -2.615528 22.322006 -10.742082
v -0.580473 22.481569 -16.173784
v 0.875903 23.011648 -16.173784
v 0.875903 23.011648 -11.642345
v -0.580473 22.481569 -11.642345
v 1.650825 24.353851 -16.173784
v 1.650825 24.353851 -11.642345
v 1.381697 25.880148 -16.173784
v 1.381697 25.880148 -11.642345
v 0.194448 26.876368 -16.173784
v 0.194448 26.876368 -11.642345
v -1.355395 26.876368 -16.173784
v -1.355395 26.876368 -11.642345
v -2.542643 25.880148 -16.173784
v -2.542643 25.880148 -11.642345
v -2.811771 24.353851 -16.173784
v -2.811771 24.353851 -11.642345
v -2.036849 23.011648 -16.173784
v -2.036849 23.011648 -11.642345
v -0.580473 21.033548 -15.955998
v 0.735914 21.512672 -15.955998
v 0.735914 21.512672 -11.860129
v -0.580473 21.033548 -11.860129
v -1.896860 21.512672 -11.860129
v -1.896860 21.512672 -15.955998
v -0.580473 20.507092 -14.647145
v -0.105401 20.680006 -14.647145
v -0.105401 20.680006 -13.168984
v -0.580473 20.507092 -13.168984
v -1.055545 20.680006 -13.168984
v -1.055545 20.680006 -14.647145
v 3.869576 -5.135001 -11.743586
v 2.708704 -5.715437 -12.078701
v 2.708704 -4.554564 -11.408471
v 0.000000 -3.200213 -15.094738
v 0.000000 -4.361086 -14.424507
v 0.000000 -3.200213 -13.754277
v -3.869576 -5.135001 -11.743586
v -2.708704 -5.715437 -12.078701
v -2.708704 -4.554564 -11.408471
v 0.000000 -7.069789 -8.392434
v 0.000000 -7.069789 -9.732895
v 0.000000 -5.908916 -9.062665
v -0.610013 0.951502 -14.075445
v -0.029576 -0.209371 -14.410561
v -1.190449 -0.209371 -13.740330
v -2.544801 -2.918074 -17.426596
v -1.383928 -2.918075 -16.756367
v -2.544801 -2.918075 -16.086136
v -0.610013 -6.787651 -14.075445
v -0.029576 -5.626778 -14.410561
v -1.190449 -5.626778 -13.740330
v 1.324776 -2.918074 -10.724294
v 1.324776 -2.918074 -12.064754
v 0.163903 -2.918074 -11.394525
v 3.259564 0.973296 -14.104840
v 2.098691 0.973296 -13.434610
v 2.098691 0.973296 -14.775070
v -0.610012 -2.896281 -14.104840
v -0.610012 -1.735408 -13.434610
v -0.610012 -1.735408 -14.775070
v -4.479589 0.973296 -14.104840
v -3.318716 0.973296 -13.434610
v -3.318716 0.973296 -14.775070
v -0.610012 4.842872 -14.104840
v -0.610012 3.681999 -13.434610
v -0.610012 3.681999 -14.775070
v -0.610013 4.913894 -17.974419
v 0.060218 4.913894 -16.813543
v -1.280243 4.913894 -16.813543
v -0.610012 1.044318 -14.104840
v 0.060218 2.205191 -14.104840
v -1.280243 2.205191 -14.104840
v -0.610012 4.913894 -10.235263
v 0.060218 4.913894 -11.396136
v -1.280243 4.913894 -11.396136
v -0.610013 8.783470 -14.104840
v 0.060218 7.622597 -14.104840
v -1.280243 7.622597 -14.104840
v 3.259564 8.972534 -14.104840
v 2.098691 8.972534 -13.434610
v 2.098691 8.972534 -14.775070
v -0.610012 5.102958 -14.104840
v -0.610012 6.263832 -13.434610
v -0.610012 6.263832 -14.775070
v -4.479589 8.972534 -14.104840
v -3.318716 8.972534 -13.434610
v -3.318716 8.972534 -14.775070
v -0.610012 12.842112 -14.104840
v -0.610012 11.681238 -13.434610
v -0.610012 11.681238 -14.775070
v -0.610013 13.004868 -17.974419
v 0.060218 13.004868 -16.813543
v -1.280243 13.004868 -16.813543
v -0.610012 9.135292 -14.104840
v 0.060218 10.296165 -14.104840
v -1.280243 10.296165 -14.104840
v -0.610012 13.004868 -10.235263
v 0.060218 13.004868 -11.396136
v -1.280243 13.004868 -11.396136
v -0.610013 16.874445 -14.104840
v 0.060218 15.713572 -14.104840
v -1.280243 15.713572 -14.104840
v 3.259564 17.174107 -14.104840
v 2.098691 17.174107 -13.434610
v 2.098691 17.174107 -14.775070
v -0.610012 13.304531 -14.104840
v -0.610012 14.465405 -13.434610
v -0.610012 14.465405 -14.775070
v -4.479589 17.174107 -14.104840
v -3.318716 17.174107 -13.434610
v -3.318716 17.174107 -14.775070
v -0.610012 21.043684 -14.104840
v -0.610012 19.882812 -13.434610
v -0.610012 19.882812 -14.775070
vt 0.846697 0.283146
vt 0.718509 0.283213
vt 0.718509 0.153342
vt 0.846697 0.153275
vt 0.374449 0.356724
vt 0.440704 0.356724
vt 0.419159 0.396362
vt 0.394794 0.396362
vt 0.848342 0.485266
vt 0.720153 0.485199
vt 0.720153 0.355328
vt 0.848342 0.355395
vt 0.465620 0.821564
vt 0.465620 0.691673
vt 0.593865 0.691673
vt 0.593865 0.821564
vt 0.718509 0.137658
vt 0.718509 0.007793
vt 0.846745 0.007824
vt 0.846745 0.137688
vt 0.720153 0.630744
vt 0.720153 0.500853
vt 0.848370 0.500853
vt 0.848370 0.630744
vt 0.669473 0.788781
vt 0.735758 0.788781
vt 0.766738 0.820158
vt 0.638493 0.820158
vt 0.735758 0.721645
vt 0.766738 0.690267
vt 0.669473 0.721645
vt 0.638493 0.690267
vt 0.602149 0.635202
vt 0.577774 0.635202
vt 0.577774 0.480712
vt 0.602149 0.480712
vt 0.704764 0.674681
vt 0.638493 0.674681
vt 0.659875 0.635652
vt 0.684245 0.635652
vt 0.623104 0.674914
vt 0.556819 0.674914
vt 0.531875 0.676086
vt 0.465620 0.676086
vt 0.485966 0.636448
vt 0.510330 0.636448
vt 0.510408 0.481948
vt 0.486044 0.481948
vt 0.474103 0.356510
vt 0.523209 0.356510
vt 0.419237 0.550862
vt 0.394873 0.550862
vt 0.659910 0.481139
vt 0.684280 0.481139
vt 0.364841 0.946663
vt 0.364841 0.896905
vt 0.413969 0.896905
vt 0.413969 0.946663
vt 0.432038 0.676300
vt 0.382932 0.676300
vt 0.647316 0.355328
vt 0.696433 0.355328
vt 0.565397 0.355328
vt 0.614525 0.355328
vt 0.118328 0.732441
vt 0.126252 0.675362
vt 0.126252 0.466740
vt 0.118328 0.409923
vt 0.099792 0.410124
vt 0.099792 0.732642
vt 0.078235 0.410069
vt 0.078235 0.732586
vt 0.647957 0.008091
vt 0.647957 0.330586
vt 0.664646 0.330288
vt 0.664646 0.007793
vt 0.686431 0.330288
vt 0.686431 0.007794
vt 0.703119 0.330586
vt 0.703119 0.008091
vt 0.282760 0.409979
vt 0.282760 0.732496
vt 0.304317 0.732440
vt 0.304317 0.409923
vt 0.246900 0.686759
vt 0.261550 0.686872
vt 0.261550 0.456081
vt 0.246899 0.455967
vt 0.322853 0.732642
vt 0.322853 0.410125
vt 0.170104 0.409933
vt 0.177496 0.466978
vt 0.190833 0.467031
vt 0.190722 0.410015
vt 0.897511 0.546602
vt 0.883784 0.546732
vt 0.883784 0.777540
vt 0.897511 0.777410
vt 0.868518 0.546676
vt 0.868518 0.777484
vt 0.055096 0.455996
vt 0.042953 0.455882
vt 0.042953 0.686709
vt 0.055096 0.686823
vt 0.027366 0.455885
vt 0.027366 0.686713
vt 0.015627 0.456005
vt 0.015627 0.686832
vt 0.897890 0.053617
vt 0.882623 0.053672
vt 0.882623 0.284480
vt 0.897890 0.284425
vt 0.868897 0.053542
vt 0.868897 0.284350
vt 0.232249 0.686872
vt 0.232249 0.456081
vt 0.045878 0.732468
vt 0.024098 0.732473
vt 0.863759 0.500957
vt 0.885092 0.501035
vt 0.862135 0.007793
vt 0.881315 0.007975
vt 0.267371 0.732576
vt 0.246900 0.732418
vt 0.885092 0.823552
vt 0.863759 0.823474
vt 0.881315 0.330492
vt 0.862134 0.330311
vt 0.246899 0.409923
vt 0.267371 0.410082
vt 0.007695 0.410095
vt 0.024098 0.409928
vt 0.007695 0.732640
vt 0.045878 0.409923
vt 0.062846 0.410083
vt 0.226428 0.732576
vt 0.062846 0.732627
vt 0.226428 0.410082
vt 0.904273 0.500853
vt 0.902648 0.007897
vt 0.904273 0.823370
vt 0.902648 0.330415
vt 0.203975 0.675612
vt 0.195682 0.609040
vt 0.190939 0.609061
vt 0.190833 0.675671
vt 0.203975 0.466972
vt 0.195682 0.533744
vt 0.211039 0.732468
vt 0.190722 0.732559
vt 0.177496 0.675618
vt 0.170104 0.732477
vt 0.330777 0.675825
vt 0.330777 0.467203
vt 0.211039 0.409923
vt 0.190939 0.533765
vt 0.186126 0.533746
vt 0.186126 0.609042
vt 0.354146 0.409923
vt 0.354146 0.582307
vt 0.346166 0.547090
vt 0.346166 0.426421
vt 0.800350 0.766233
vt 0.801206 0.646331
vt 0.816666 0.678882
vt 0.815810 0.798784
vt 0.526135 0.197144
vt 0.526135 0.074295
vt 0.541430 0.007793
vt 0.541430 0.183292
vt 0.149621 0.409923
vt 0.149621 0.582307
vt 0.141641 0.565809
vt 0.141641 0.445141
vt 0.832910 0.919449
vt 0.832055 0.799547
vt 0.847515 0.766996
vt 0.848370 0.886898
vt 0.473068 0.184637
vt 0.465620 0.165425
vt 0.440704 0.705742
vt 0.440704 0.881318
vt 0.425568 0.814790
vt 0.425568 0.691887
vt 0.832910 0.678882
vt 0.848370 0.646331
vt 0.473068 0.307485
vt 0.465620 0.340923
vt 0.364841 0.723448
vt 0.372464 0.704281
vt 0.801206 0.886898
vt 0.816665 0.919449
vt 0.234310 0.748163
vt 0.234310 0.919457
vt 0.226428 0.884222
vt 0.226428 0.764316
vt 0.919662 0.620547
vt 0.919728 0.500853
vt 0.935195 0.533406
vt 0.935130 0.653100
vt 0.625248 0.184127
vt 0.572224 0.074263
vt 0.556819 0.007793
vt 0.632568 0.164742
vt 0.374449 0.007793
vt 0.450231 0.165511
vt 0.434881 0.151717
vt 0.381833 0.041314
vt 0.918547 0.280923
vt 0.918037 0.160260
vt 0.933502 0.127698
vt 0.934012 0.248361
vt 0.572224 0.196762
vt 0.556819 0.182793
vt 0.450231 0.341137
vt 0.434881 0.274655
vt 0.918547 0.040355
vt 0.934012 0.007793
vt 0.625248 0.306626
vt 0.632568 0.339741
vt 0.374449 0.183419
vt 0.381833 0.164252
vt 0.919728 0.741391
vt 0.935195 0.773944
vt 0.007695 0.885301
vt 0.007695 0.764637
vt 0.015278 0.748227
vt 0.015278 0.920604
vt 0.588805 0.871085
vt 0.548739 0.871330
vt 0.560759 0.837322
vt 0.588805 0.837151
vt 0.721612 0.836069
vt 0.748306 0.835745
vt 0.748306 0.904027
vt 0.721613 0.904351
vt 0.588109 0.905423
vt 0.560064 0.905594
vt 0.092546 0.748229
vt 0.091870 0.788803
vt 0.058368 0.788435
vt 0.058841 0.760033
vt 0.776097 0.836056
vt 0.776097 0.904338
vt 0.126252 0.760069
vt 0.125778 0.788471
vt 0.499642 0.915985
vt 0.499194 0.877362
vt 0.533036 0.877132
vt 0.533350 0.904168
vt 0.749655 0.988214
vt 0.721612 0.988678
vt 0.721612 0.920402
vt 0.749655 0.919938
vt 0.126252 0.815240
vt 0.092546 0.827044
vt 0.499642 0.837151
vt 0.533350 0.848984
vt 0.947256 0.907879
vt 0.919214 0.907415
vt 0.919214 0.839139
vt 0.947256 0.839603
vt 0.465620 0.877116
vt 0.465934 0.848968
vt 0.191072 0.394336
vt 0.191072 0.193319
vt 0.202735 0.195567
vt 0.202735 0.336278
vt 0.951134 0.776814
vt 0.950585 0.638518
vt 0.964066 0.638514
vt 0.964615 0.776811
vt 0.111047 0.065851
vt 0.111047 0.206563
vt 0.099383 0.208810
vt 0.099383 0.007793
vt 0.267371 0.007793
vt 0.256145 0.065698
vt 0.951134 0.500856
vt 0.964615 0.500853
vt 0.164456 0.336431
vt 0.175682 0.394336
vt 0.267371 0.208810
vt 0.256145 0.206410
vt 0.978821 0.283709
vt 0.978821 0.145172
vt 0.992305 0.145172
vt 0.992305 0.283709
vt 0.164456 0.195720
vt 0.175682 0.193319
vt 0.978821 0.007793
vt 0.992305 0.007793
vt 0.903825 0.873073
vt 0.863759 0.873318
vt 0.875779 0.839310
vt 0.903825 0.839139
vt 0.262893 0.842955
vt 0.289586 0.842631
vt 0.289586 0.910913
vt 0.262893 0.911237
vt 0.903129 0.907411
vt 0.875084 0.907582
vt 0.297072 0.748228
vt 0.296396 0.788803
vt 0.262893 0.788435
vt 0.263366 0.760033
vt 0.317378 0.842942
vt 0.317378 0.911224
vt 0.330777 0.760068
vt 0.330304 0.788470
vt 0.672515 0.914580
vt 0.672067 0.875957
vt 0.705910 0.875726
vt 0.706223 0.902762
vt 0.576782 0.989457
vt 0.548739 0.989922
vt 0.548739 0.921646
vt 0.576782 0.921181
vt 0.330777 0.815239
vt 0.297071 0.827044
vt 0.672515 0.835745
vt 0.706223 0.847578
vt 0.947256 0.992207
vt 0.919214 0.991742
vt 0.919214 0.923466
vt 0.947256 0.923931
vt 0.638493 0.875710
vt 0.638807 0.847562
vt 0.359059 0.007793
vt 0.359059 0.208810
vt 0.347396 0.206563
vt 0.347396 0.065852
vt 0.949950 0.283754
vt 0.949401 0.145458
vt 0.962883 0.145455
vt 0.963432 0.283751
vt 0.019358 0.065851
vt 0.019358 0.206563
vt 0.007695 0.208810
vt 0.007695 0.007793
vt 0.282760 0.394336
vt 0.293987 0.336431
vt 0.949950 0.007797
vt 0.963432 0.007793
vt 0.072768 0.336431
vt 0.083994 0.394336
vt 0.282760 0.193319
vt 0.293987 0.195720
vt 0.623104 0.690501
vt 0.623104 0.829037
vt 0.609619 0.829037
vt 0.609619 0.690501
vt 0.072768 0.195720
vt 0.083994 0.193319
vt 0.623104 0.966416
vt 0.609619 0.966416
vt 0.903797 0.389263
vt 0.863731 0.389508
vt 0.875751 0.355500
vt 0.903797 0.355328
vt 0.058368 0.842955
vt 0.085061 0.842631
vt 0.085061 0.910913
vt 0.058368 0.911237
vt 0.903101 0.423601
vt 0.875056 0.423772
vt 0.177333 0.748146
vt 0.176657 0.788721
vt 0.143155 0.788353
vt 0.143628 0.759951
vt 0.112852 0.842942
vt 0.112852 0.911224
vt 0.211039 0.759986
vt 0.210566 0.788388
vt 0.177177 0.921383
vt 0.176729 0.882760
vt 0.210571 0.882530
vt 0.210885 0.909566
vt 0.919186 0.355793
vt 0.947228 0.355328
vt 0.947228 0.423604
vt 0.919186 0.424069
vt 0.211039 0.815157
vt 0.177333 0.826962
vt 0.177177 0.842549
vt 0.210885 0.854382
vt 0.863759 0.923169
vt 0.891802 0.923634
vt 0.891802 0.991910
vt 0.863759 0.991445
vt 0.143155 0.882514
vt 0.143468 0.854366
vn 1.0000 0.0000 0.0000
vn -0.3471 0.0000 0.9378
vn -1.0000 0.0000 0.0000
vn 0.0000 0.0000 -1.0000
vn 0.0000 -1.0000 0.0000
vn 0.0000 1.0000 0.0000
vn 0.0000 0.0000 1.0000
vn 0.0000 -0.3471 0.9378
vn 0.0000 0.3471 0.9378
vn 0.3471 0.0000 0.9378
vn 0.8949 0.0000 -0.4463
vn -0.8949 0.0000 -0.4463
vn 0.0000 -0.8949 -0.4463
vn 0.0000 0.8949 -0.4463
vn -0.7477 0.6640 0.0000
vn -0.8660 0.5000 0.0000
vn -0.9848 -0.1736 0.0000
vn -0.6428 -0.7660 0.0000
vn 0.6428 -0.7660 0.0000
vn 0.9848 -0.1736 0.0000
vn 0.3420 -0.9397 0.0000
vn 0.8660 0.5000 0.0000
vn 0.3107 0.8536 0.4182
vn 0.8660 -0.5000 0.0000
vn 0.9848 0.1736 0.0000
vn 0.6428 0.7660 0.0000
vn -0.6428 0.7660 0.0000
vn -0.9848 0.1736 0.0000
vn -0.8660 -0.5000 0.0000
vn -0.3420 -0.9397 0.0000
vn 0.0000 0.7287 -0.6848
vn 0.7177 0.1265 0.6848
vn -0.6311 -0.3644 0.6848
vn 0.2492 -0.6848 0.6848
vn 0.7177 0.1265 -0.6848
vn -0.6311 -0.3644 -0.6848
vn 0.2492 -0.6848 -0.6848
vn -0.4684 0.5582 0.6848
vn -0.4684 0.5582 -0.6848
vn 0.4684 0.5582 0.6848
vn -0.2492 -0.6848 0.6848
vn 0.4684 0.5582 -0.6848
vn -0.2492 -0.6848 -0.6848
vn 0.6311 -0.3644 0.6848
vn -0.7177 0.1265 0.6848
vn 0.6311 -0.3644 -0.6848
vn -0.7177 0.1265 -0.6848
vn 0.0000 0.7287 0.6848
vn -0.3199 0.8790 -0.3536
vn -0.7034 0.7108 0.0000
vn -0.3107 0.8536 -0.4182
vn 0.3107 0.8536 -0.4182
vn 0.7477 0.6640 0.0000
vn -0.3107 0.8536 0.4182
vn -0.3420 0.9397 0.0000
vn 0.3420 0.9397 0.0000
vn 0.3199 0.8790 -0.3536
vn 0.7034 0.7108 0.0000
vn -0.3199 0.8790 0.3536
vn 0.3199 0.8790 0.3536
vn -0.4472 0.4472 0.7746
vn 0.7071 0.3536 -0.6124
vn -0.4472 -0.8944 0.0000
vn 0.4472 0.4472 0.7746
vn -0.7071 0.3536 -0.6124
vn 0.4472 -0.8944 0.0000
vn 0.4472 0.8944 0.0000
vn -0.7071 -0.3536 0.6124
vn 0.4472 -0.4472 -0.7746
vn -0.4472 0.8944 0.0000
vn 0.7071 -0.3536 0.6124
vn -0.4472 -0.4472 -0.7746
vn -0.4472 -0.4472 0.7746
vn -0.3536 0.7071 -0.6124
vn 0.8944 -0.4472 -0.0000
vn -0.3536 -0.7071 -0.6124
vn 0.8944 0.4472 0.0000
vn -0.8944 0.4472 0.0000
vn 0.3536 -0.7071 0.6124
vn 0.4472 0.4472 -0.7746
vn -0.8944 -0.4472 -0.0000
vn 0.3536 0.7071 0.6124
vn -0.4472 0.4472 -0.7746
vn 0.7071 -0.7071 0.0000
vn -0.7071 -0.7071 0.0000
vn -0.7071 0.7071 0.0000
vn 0.4472 -0.4472 0.7746
vn 0.7071 0.7071 0.0000
vn -0.7746 0.4472 0.4472
vn 0.0000 -0.7071 -0.7071
vn 0.7746 0.4472 0.4472
vn -0.7746 0.4472 -0.4472
vn 0.0000 -0.7071 0.7071
vn 0.7746 0.4472 -0.4472
vn -0.7746 -0.4472 -0.4472
vn 0.0000 0.7071 0.7071
vn 0.7746 -0.4472 -0.4472
vn -0.7746 -0.4472 0.4472
vn 0.0000 0.7071 -0.7071
vn 0.7746 -0.4472 0.4472
usemtl grilletes
s off
f 1/1/1 2/2/1 9/3/1 10/4/1
f 8/5/2 7/6/2 15/7/2 16/8/2
f 11/9/3 12/10/3 6/11/3 5/12/3
f 5/13/4 6/14/4 2/15/4 1/16/4
f 10/17/5 11/18/5 5/19/5 1/20/5
f 12/21/6 9/22/6 2/23/6 6/24/6
f 4/25/7 3/26/7 10/27/7 9/28/7
f 3/26/7 7/29/7 11/30/7 10/27/7
f 8/31/7 4/25/7 9/28/7 12/32/7
f 7/29/7 8/31/7 12/32/7 11/30/7
f 13/33/6 16/34/6 20/35/6 17/36/6
f 7/37/8 3/38/8 14/39/8 15/40/8
f 4/41/9 8/42/9 16/34/9 13/33/9
f 3/43/10 4/44/10 13/45/10 14/46/10
f 18/47/11 17/48/11 21/49/11 22/50/11
f 14/46/1 13/45/1 17/48/1 18/47/1
f 16/8/3 15/7/3 19/51/3 20/52/3
f 15/40/5 14/39/5 18/53/5 19/54/5
f 22/55/7 21/56/7 24/57/7 23/58/7
f 20/52/12 19/51/12 23/59/12 24/60/12
f 19/54/13 18/53/13 22/61/13 23/62/13
f 17/36/14 20/35/14 24/63/14 21/64/14
f 27/65/15 62/66/15 63/67/15 28/68/15
f 27/65/16 28/68/16 30/69/16 29/70/16
f 29/70/17 30/69/17 32/71/17 31/72/17
f 31/73/18 32/74/18 34/75/18 33/76/18
f 33/76/5 34/75/5 36/77/5 35/78/5
f 35/78/19 36/77/19 38/79/19 37/80/19
f 37/81/20 38/82/20 40/83/20 39/84/20
f 43/85/21 44/86/21 45/87/21 46/88/21
f 39/84/22 40/83/22 42/89/22 41/90/22
f 41/91/23 66/92/23 61/93/23 25/94/23
f 44/95/24 47/96/24 48/97/24 45/98/24
f 47/96/25 49/99/25 50/100/25 48/97/25
f 49/101/26 51/102/26 52/103/26 50/104/26
f 51/102/6 53/105/6 54/106/6 52/103/6
f 53/105/27 55/107/27 56/108/27 54/106/27
f 55/109/28 57/110/28 58/111/28 56/112/28
f 57/110/29 59/113/29 60/114/29 58/111/29
f 59/115/30 43/85/30 46/88/30 60/116/30
f 34/117/31 52/103/31 54/106/31 36/118/31
f 31/119/32 49/99/32 47/96/32 29/120/32
f 41/121/33 59/113/33 57/110/33 39/122/33
f 27/123/34 44/86/34 43/85/34 25/124/34
f 30/125/35 48/97/35 50/100/35 32/126/35
f 40/127/36 58/111/36 60/114/36 42/128/36
f 26/129/37 46/88/37 45/87/37 28/130/37
f 37/131/38 55/107/38 53/105/38 35/132/38
f 36/118/39 54/106/39 56/108/39 38/133/39
f 33/134/40 51/102/40 49/101/40 31/135/40
f 25/124/41 43/85/41 59/115/41 41/136/41
f 32/137/42 50/104/42 52/103/42 34/117/42
f 42/138/43 60/116/43 46/88/43 26/129/43
f 29/120/44 47/96/44 44/95/44 27/139/44
f 39/122/45 57/110/45 55/109/45 37/140/45
f 28/141/46 45/98/46 48/97/46 30/125/46
f 38/142/47 56/112/47 58/111/47 40/127/47
f 35/132/48 53/105/48 51/102/48 33/134/48
f 63/143/49 69/144/49 70/145/49 64/146/49
f 62/147/50 68/148/50 69/144/50 63/143/50
f 28/149/51 63/143/51 64/146/51 26/150/51
f 26/150/52 64/146/52 65/151/52 42/152/52
f 42/89/53 65/153/53 66/154/53 41/90/53
f 25/94/54 61/93/54 62/147/54 27/155/54
f 67/156/55 70/145/55 69/144/55 68/148/55
f 72/157/56 71/158/56 70/145/56 67/156/56
f 64/146/57 70/145/57 71/158/57 65/151/57
f 65/151/58 71/158/58 72/157/58 66/92/58
f 61/93/59 67/156/59 68/148/59 62/147/59
f 66/92/60 72/157/60 67/156/60 61/93/60
f 73/159/61 76/160/61 77/161/61 74/162/61
f 74/163/62 77/164/62 78/165/62 75/166/62
f 75/167/63 78/168/63 76/169/63 73/170/63
f 76/171/64 79/172/64 80/173/64 77/174/64
f 77/175/65 80/176/65 81/177/65 78/178/65
f 78/168/66 81/179/66 79/180/66 76/169/66
f 79/181/67 82/182/67 83/183/67 80/184/67
f 80/176/68 83/185/68 84/186/68 81/177/68
f 81/179/69 84/187/69 82/188/69 79/180/69
f 82/182/70 73/189/70 74/190/70 83/183/70
f 83/191/71 74/163/71 75/166/71 84/192/71
f 84/187/72 75/167/72 73/170/72 82/188/72
f 85/193/73 88/194/73 89/195/73 86/196/73
f 86/197/74 89/198/74 90/199/74 87/200/74
f 87/201/75 90/202/75 88/203/75 85/204/75
f 88/205/61 91/206/61 92/207/61 89/208/61
f 89/209/76 92/210/76 93/211/76 90/212/76
f 90/202/77 93/213/77 91/214/77 88/203/77
f 91/206/78 94/215/78 95/216/78 92/207/78
f 92/210/79 95/217/79 96/218/79 93/211/79
f 93/213/80 96/219/80 94/220/80 91/214/80
f 94/215/81 85/221/81 86/222/81 95/216/81
f 95/223/82 86/197/82 87/200/82 96/224/82
f 96/225/69 87/226/69 85/227/69 94/228/69
f 97/229/83 100/230/83 101/231/83 98/232/83
f 98/233/84 101/234/84 102/235/84 99/236/84
f 99/237/61 102/238/61 100/230/61 97/229/61
f 100/239/80 103/240/80 104/241/80 101/242/80
f 101/234/85 104/243/85 105/244/85 102/235/85
f 102/245/64 105/246/64 103/240/64 100/239/64
f 103/247/69 106/248/69 107/249/69 104/250/69
f 104/251/86 107/252/86 108/253/86 105/254/86
f 105/246/87 108/255/87 106/256/87 103/240/87
f 106/248/72 97/257/72 98/258/72 107/249/72
f 107/259/88 98/260/88 99/261/88 108/262/88
f 108/263/73 99/264/73 97/257/73 106/248/73
f 109/265/89 112/266/89 113/267/89 110/268/89
f 110/269/90 113/270/90 114/271/90 111/272/90
f 111/273/91 114/274/91 112/275/91 109/276/91
f 112/266/92 115/277/92 116/278/92 113/267/92
f 113/270/93 116/279/93 117/280/93 114/271/93
f 114/274/94 117/281/94 115/282/94 112/275/94
f 115/277/95 118/283/95 119/284/95 116/278/95
f 116/285/96 119/286/96 120/287/96 117/288/96
f 117/281/97 120/289/97 118/290/97 115/282/97
f 118/283/98 109/265/98 110/268/98 119/284/98
f 119/286/99 110/291/99 111/292/99 120/287/99
f 120/289/100 111/273/100 109/276/100 118/290/100
f 121/293/83 124/294/83 125/295/83 122/296/83
f 122/297/84 125/298/84 126/299/84 123/300/84
f 123/301/61 126/302/61 124/294/61 121/293/61
f 124/303/80 127/304/80 128/305/80 125/306/80
f 125/298/85 128/307/85 129/308/85 126/299/85
f 126/309/64 129/310/64 127/304/64 124/303/64
f 127/311/69 130/312/69 131/313/69 128/314/69
f 128/315/86 131/316/86 132/317/86 129/318/86
f 129/310/87 132/319/87 130/320/87 127/304/87
f 130/312/72 121/321/72 122/322/72 131/313/72
f 131/323/88 122/324/88 123/325/88 132/326/88
f 132/327/73 123/328/73 121/321/73 130/312/73
f 133/329/89 136/330/89 137/331/89 134/332/89
f 134/333/90 137/334/90 138/335/90 135/336/90
f 135/337/91 138/338/91 136/339/91 133/340/91
f 136/330/92 139/341/92 140/342/92 137/331/92
f 137/334/93 140/343/93 141/344/93 138/335/93
f 138/338/94 141/345/94 139/346/94 136/339/94
f 139/341/95 142/347/95 143/348/95 140/342/95
f 140/349/96 143/350/96 144/351/96 141/352/96
f 141/345/97 144/353/97 142/354/97 139/346/97
f 142/347/98 133/329/98 134/332/98 143/348/98
f 143/350/99 134/355/99 135/356/99 144/351/99
f 144/353/100 135/337/100 133/340/100 142/354/100
f 145/357/83 148/358/83 149/359/83 146/360/83
f 146/361/84 149/362/84 150/363/84 147/364/84
f 147/365/61 150/366/61 148/358/61 145/357/61
f 148/367/80 151/368/80 152/369/80 149/370/80
f 149/362/85 152/371/85 153/372/85 150/363/85
f 150/373/64 153/374/64 151/368/64 148/367/64
f 151/375/69 154/376/69 155/377/69 152/378/69
f 152/379/86 155/380/86 156/381/86 153/382/86
f 153/374/87 156/383/87 154/384/87 151/368/87
f 154/376/72 145/385/72 146/386/72 155/377/72
f 155/387/88 146/388/88 147/389/88 156/390/88
f 156/391/73 147/392/73 145/385/73 154/376/73
