# Blender v2.79 (sub 6) OBJ File: ''
# www.blender.org
mtllib kpong.mtl
o Plane
v 25.809591 -49.601719 -0.000006
v -25.809614 -49.601704 -0.000002
v -25.809591 18.289038 0.000006
v 25.809614 18.289022 0.000001
v 25.809591 -49.601719 -0.000006
v 25.809614 18.289022 0.000001
v -25.809591 18.289038 0.000006
v -25.809614 -49.601704 -0.000002
vt 0.000000 1.000000
vt 1.000000 1.000000
vt 1.000000 0.000000
vt 0.000000 0.000000
vt 0.000000 1.000000
vt 0.000000 0.000000
vt 1.000000 0.000000
vt 1.000000 1.000000
vn -0.0000 0.0000 -1.0000
vn 0.0000 -0.0000 1.0000
usemtl Material.002
s 1
f 1/1/1 2/2/1 3/3/1 4/4/1
f 5/5/2 6/6/2 7/7/2 8/8/2
f 4/4/2 3/3/2 7/7/2 6/6/2
f 2/2/2 1/1/2 5/5/2 8/8/2
f 3/3/2 2/2/2 8/8/2 7/7/2
f 1/1/2 4/4/2 6/6/2 5/5/2
