# Blender v2.79 (sub 7) OBJ File: 'lanza.blend'
# www.blender.org
mtllib lanza.mtl
o Cylinder
v 0.000000 49.121773 -1.105741
v 0.000000 4.892114 -1.105741
v 0.502535 49.121773 -0.781877
v 0.502535 4.892114 -0.781877
v 0.710691 49.121773 0.000000
v 0.710691 4.892114 0.000000
v 0.502535 49.121773 0.781877
v 0.502535 4.892114 0.781877
v -0.000000 49.121773 1.105741
v -0.000000 4.892114 1.105741
v -0.502535 49.121773 0.781877
v -0.502535 4.892114 0.781877
v -0.710691 49.121773 -0.000000
v -0.710691 4.892114 -0.000000
v -0.502535 49.121773 -0.781877
v -0.502535 4.892114 -0.781877
v 0.000001 49.902973 -1.447916
v 0.658046 49.902973 -1.023831
v 0.930617 49.902973 0.000000
v 0.658046 49.902973 1.023831
v 0.000001 49.902973 1.447916
v -0.658045 49.902973 1.023831
v -0.930616 49.902973 -0.000000
v -0.658045 49.902973 -1.023831
v 0.344436 3.741242 -0.535896
v 0.000000 3.741242 -0.757871
v 0.487105 3.741242 0.000000
v 0.344436 3.741242 0.535896
v 0.000000 3.741242 0.757871
v -0.344435 3.741242 0.535895
v -0.487105 3.741242 -0.000000
v -0.344435 3.741242 -0.535896
v 0.619955 3.139234 -0.964567
v 0.000001 3.139234 -1.364104
v 0.876749 3.139234 0.000000
v 0.619955 3.139234 0.964567
v 0.000001 3.139234 1.364104
v -0.619954 3.139234 0.964567
v -0.876748 3.139234 -0.000000
v -0.619954 3.139234 -0.964567
v 0.374937 2.093612 -0.141857
v 0.000001 2.093612 -0.200616
v 0.530240 2.093612 -0.000000
v 0.374937 2.093612 0.141857
v 0.000001 2.093612 0.200616
v -0.374936 2.093612 0.141857
v -0.530239 2.093612 -0.000000
v -0.374936 2.093612 -0.141857
v 0.764763 1.030443 -0.289347
v 0.000001 1.030443 -0.409199
v 1.081538 1.030443 -0.000000
v 0.764763 1.030443 0.289347
v 0.000001 1.030443 0.409199
v -0.764762 1.030443 0.289347
v -1.081536 1.030443 -0.000000
v -0.764762 1.030443 -0.289347
v 1.454543 -2.831202 -0.550325
v 0.000000 -2.831202 -0.778277
v 2.057034 -2.831202 0.000000
v 1.454543 -2.831202 0.550325
v 0.000000 -2.831202 0.778277
v -1.454543 -2.831202 0.550325
v -2.057034 -2.831202 -0.000000
v -1.454543 -2.831202 -0.550325
v -0.000001 -10.995896 -0.000000
vt 0.073191 0.985436
vt 0.073190 0.742709
vt 0.157912 0.742708
vt 0.157912 0.985436
vt 0.875429 0.014564
vt 0.875429 0.257291
vt 0.815521 0.257291
vt 0.815521 0.014564
vt 0.730800 0.257291
vt 0.730800 0.014564
vt 0.670893 0.257292
vt 0.670893 0.014564
vt 0.901995 0.257292
vt 0.901995 0.014564
vt 0.986717 0.014564
vt 0.986717 0.257291
vt 0.329107 0.742708
vt 0.329107 0.985436
vt 0.269200 0.985436
vt 0.269200 0.742708
vt 0.815521 0.510670
vt 0.730800 0.510670
vt 0.744127 0.475395
vt 0.802194 0.475395
vt 0.184479 0.985436
vt 0.184479 0.742708
vt 0.013283 0.985436
vt 0.013283 0.742709
vt 0.468050 0.273512
vt 0.552772 0.273512
vt 0.565880 0.308210
vt 0.454942 0.308210
vt 0.644326 0.544977
vt 0.565880 0.630984
vt 0.454942 0.630984
vt 0.376496 0.544977
vt 0.376496 0.423345
vt 0.454942 0.337338
vt 0.565880 0.337338
vt 0.644326 0.423345
vt 0.612679 0.114943
vt 0.552772 0.049261
vt 0.565880 0.014564
vt 0.644326 0.100571
vt 0.408143 0.114943
vt 0.408143 0.207831
vt 0.376496 0.222203
vt 0.376496 0.100571
vt 0.612679 0.207831
vt 0.644326 0.222203
vt 0.468050 0.049261
vt 0.454942 0.014564
vt 0.473626 0.875286
vt 0.531693 0.875286
vt 0.554918 0.936760
vt 0.450401 0.936760
vt 0.815521 0.286419
vt 0.875429 0.352101
vt 0.843255 0.366712
vt 0.802195 0.321694
vt 0.670893 0.444988
vt 0.670893 0.352100
vt 0.703067 0.366712
vt 0.703067 0.430377
vt 0.875429 0.444988
vt 0.843255 0.430377
vt 0.730800 0.286419
vt 0.744127 0.321694
vt 0.907716 0.741140
vt 0.907716 0.855732
vt 0.817021 0.851631
vt 0.800107 0.790010
vt 0.572753 0.830269
vt 0.572753 0.766603
vt 0.628823 0.741140
vt 0.628823 0.855732
vt 0.531693 0.721586
vt 0.473625 0.721586
vt 0.450401 0.660111
vt 0.554918 0.660111
vt 0.432565 0.766604
vt 0.432565 0.830269
vt 0.376496 0.855732
vt 0.376496 0.741140
vt 0.292392 0.366279
vt 0.292392 0.301928
vt 0.313167 0.237315
vt 0.313167 0.368574
vt 0.833812 0.936760
vt 0.729294 0.936760
vt 0.790781 0.863548
vt 0.813158 0.882092
vt 0.655389 0.741140
vt 0.729294 0.660111
vt 0.749948 0.714780
vt 0.746085 0.745241
vt 0.833811 0.660111
vt 0.772325 0.733324
vt 0.655389 0.855732
vt 0.762998 0.806862
vt 0.255527 0.230950
vt 0.231651 0.359571
vt 0.194890 0.355511
vt 0.240300 0.110879
vt 0.280686 0.273980
vt 0.264133 0.298807
vt 0.289292 0.180310
vt 0.252427 0.361866
vt 0.252427 0.426217
vt 0.231651 0.490830
vt 0.264133 0.454165
vt 0.280686 0.429338
vt 0.289292 0.497195
vt 0.255527 0.547835
vt 0.122913 0.617266
vt 0.058693 0.713581
vt 0.090803 0.364073
vt 0.240300 0.713581
vt 0.194890 0.605159
vt 0.349929 0.372633
vt 0.304519 0.617266
vt 0.349929 0.122986
vt 0.304519 0.014564
vt 0.013283 0.605159
vt 0.013283 0.355511
vt 0.058693 0.110879
vt 0.122913 0.014564
vt 0.168323 0.122986
vt 0.168323 0.372633
vn -0.5417 0.0000 0.8406
vn -0.9663 0.0000 0.2573
vn -0.9663 0.0000 -0.2573
vn -0.5417 0.0000 -0.8406
vn 0.5417 0.0000 -0.8406
vn 0.9663 0.0000 -0.2573
vn -0.5250 0.2463 -0.8147
vn 0.9663 0.0000 0.2573
vn 0.5417 0.0000 0.8406
vn -0.9325 0.2625 0.2482
vn 0.0000 -1.0000 0.0000
vn 0.5084 0.3455 -0.7888
vn 0.5083 0.3455 0.7888
vn -0.5084 0.3455 0.7888
vn -0.9325 0.2625 -0.2482
vn 0.9325 0.2625 -0.2482
vn -0.5084 0.3455 -0.7888
vn 0.9325 0.2625 0.2482
vn 0.8193 -0.5303 0.2181
vn 0.9497 0.1845 0.2528
vn -0.9497 0.1845 0.2528
vn 0.5250 0.2463 -0.8147
vn 0.5250 0.2463 0.8147
vn -0.5250 0.2463 0.8147
vn -0.9497 0.1845 -0.2528
vn 0.9497 0.1845 -0.2528
vn -0.3092 0.6737 -0.6712
vn 0.4135 -0.6461 -0.6416
vn -0.8193 -0.5303 -0.2181
vn -0.4135 -0.6461 0.6416
vn 0.4135 -0.6461 0.6416
vn 0.8193 -0.5303 -0.2181
vn -0.4135 -0.6461 -0.6416
vn -0.8193 -0.5303 0.2181
vn 0.1520 -0.1903 0.9699
vn -0.8694 0.3733 0.3238
vn 0.8694 0.3733 0.3238
vn 0.3092 0.6737 -0.6712
vn -0.8694 0.3733 -0.3238
vn -0.3092 0.6737 0.6712
vn 0.3092 0.6737 0.6712
vn 0.8694 0.3733 -0.3238
vn 0.1541 -0.0940 -0.9836
vn 0.6366 -0.3301 -0.6970
vn -0.1520 -0.1903 -0.9699
vn -0.6366 -0.3301 0.6970
vn 0.6366 -0.3301 0.6970
vn 0.1520 -0.1903 -0.9699
vn -0.6366 -0.3301 -0.6970
vn -0.1520 -0.1903 0.9699
vn 0.6649 0.1675 0.7279
vn -0.6648 -0.1679 -0.7279
vn -0.1541 -0.0940 0.9836
vn 0.1541 -0.0940 0.9836
vn 0.6648 -0.1679 -0.7279
vn -0.1541 -0.0940 -0.9836
vn -0.6648 -0.1679 0.7279
vn 0.6648 -0.1679 0.7279
vn 0.1541 0.0938 -0.9836
vn -0.6649 0.1675 -0.7279
vn -0.1541 0.0938 0.9836
vn 0.1541 0.0938 0.9836
vn 0.6649 0.1675 -0.7279
vn -0.1541 0.0938 -0.9836
vn -0.6649 0.1675 0.7279
usemtl lanza
s off
f 1/1/1 2/2/1 4/3/1 3/4/1
f 3/5/2 4/6/2 6/7/2 5/8/2
f 5/8/3 6/7/3 8/9/3 7/10/3
f 7/10/4 8/9/4 10/11/4 9/12/4
f 9/13/5 10/14/5 12/15/5 11/16/5
f 11/17/6 12/18/6 14/19/6 13/20/6
f 10/21/7 8/22/7 28/23/7 29/24/7
f 13/20/8 14/19/8 16/25/8 15/26/8
f 15/27/9 16/28/9 2/2/9 1/1/9
f 3/29/10 5/30/10 19/31/10 18/32/10
f 17/33/11 18/34/11 19/35/11 20/36/11 21/37/11 22/38/11 23/39/11 24/40/11
f 9/41/12 11/42/12 22/43/12 21/44/12
f 15/45/13 1/46/13 17/47/13 24/48/13
f 1/46/14 3/29/14 18/32/14 17/47/14
f 5/30/15 7/49/15 20/50/15 19/31/15
f 11/42/16 13/51/16 23/52/16 22/43/16
f 7/49/17 9/41/17 21/44/17 20/50/17
f 13/51/18 15/45/18 24/48/18 23/52/18
f 32/53/19 31/54/19 39/55/19 40/56/19
f 16/57/20 14/58/20 31/59/20 32/60/20
f 6/61/21 4/62/21 25/63/21 27/64/21
f 12/65/22 10/21/22 29/24/22 30/66/22
f 2/67/23 16/57/23 32/60/23 26/68/23
f 4/62/24 2/67/24 26/68/24 25/63/24
f 8/22/25 6/61/25 27/64/25 28/23/25
f 14/58/26 12/65/26 30/66/26 31/59/26
f 37/69/27 36/70/27 44/71/27 45/72/27
f 30/73/28 29/74/28 37/75/28 38/76/28
f 28/77/29 27/78/29 35/79/29 36/80/29
f 25/81/30 26/82/30 34/83/30 33/84/30
f 26/82/31 32/53/31 40/56/31 34/83/31
f 31/54/32 30/73/32 38/76/32 39/55/32
f 29/74/33 28/77/33 36/80/33 37/75/33
f 27/78/34 25/81/34 33/84/34 35/79/34
f 42/85/35 48/86/35 56/87/35 50/88/35
f 35/89/36 33/90/36 41/91/36 43/92/36
f 40/93/37 39/94/37 47/95/37 48/96/37
f 38/97/38 37/69/38 45/72/38 46/98/38
f 36/70/39 35/89/39 43/92/39 44/71/39
f 33/90/40 34/99/40 42/100/40 41/91/40
f 34/99/41 40/93/41 48/96/41 42/100/41
f 39/94/42 38/97/42 46/98/42 47/95/42
f 54/101/43 53/102/43 61/103/43 62/104/43
f 47/105/44 46/106/44 54/101/44 55/107/44
f 45/108/45 44/109/45 52/110/45 53/102/45
f 43/111/46 41/112/46 49/113/46 51/114/46
f 48/86/47 47/105/47 55/107/47 56/87/47
f 46/106/48 45/108/48 53/102/48 54/101/48
f 44/109/49 43/111/49 51/114/49 52/110/49
f 41/112/50 42/85/50 50/88/50 49/113/50
f 64/115/51 63/116/51 65/117/51
f 52/110/52 51/114/52 59/118/52 60/119/52
f 49/113/53 50/88/53 58/120/53 57/121/53
f 50/88/54 56/87/54 64/122/54 58/120/54
f 55/107/55 54/101/55 62/104/55 63/123/55
f 53/102/56 52/110/56 60/119/56 61/103/56
f 51/114/57 49/113/57 57/121/57 59/118/57
f 56/87/58 55/107/58 63/123/58 64/122/58
f 62/124/59 61/125/59 65/117/59
f 60/126/60 59/127/60 65/117/60
f 57/128/61 58/129/61 65/117/61
f 58/129/62 64/115/62 65/117/62
f 63/116/63 62/124/63 65/117/63
f 61/125/64 60/126/64 65/117/64
f 59/127/65 57/128/65 65/117/65
