# Blender v2.79 (sub 7) OBJ File: ''
# www.blender.org
mtllib normal_door.mtl
o Cube.000
v 22.971676 -69.733788 -4.628497
v 22.971676 -69.733788 4.628448
v 22.971676 -0.306699 4.628472
v 22.971676 -0.306697 -4.628474
v -23.313053 -0.306699 4.628474
v -23.313053 -69.733788 4.628451
v -23.313053 -69.733788 -4.628495
v -23.313053 -0.306697 -4.628472
v 20.588131 -7.213574 5.896469
v 22.971676 -8.231023 4.628468
v -23.313053 -8.231023 4.628472
v -21.196745 -7.213574 5.896471
v 21.035995 -54.061367 7.736566
v -20.974066 -54.061367 7.736567
v -20.974066 -51.392170 7.736567
v 21.035995 -51.392170 7.736566
v 20.628437 -16.279493 7.956170
v -20.675571 -16.279493 7.956174
v -23.313053 -14.192116 4.628471
v 22.971676 -14.192116 4.628467
v 22.971676 -48.266041 4.628456
v -23.313053 -48.266041 4.628458
v 22.971676 -55.848370 4.628454
v -23.313053 -55.848370 4.628456
v 22.008842 -58.336662 6.242163
v 22.971676 -57.531525 4.628454
v 22.971676 -59.161995 4.628454
v 20.628437 -20.160788 7.956169
v 22.971676 -21.855661 4.628465
v -20.675571 -20.160788 7.956171
v -23.313053 -21.855661 4.628467
v -21.196745 -6.309351 5.896471
v -23.313053 -5.531014 4.628472
v 22.971676 -5.531014 4.628468
v 20.588131 -6.309351 5.896469
v -23.313053 -59.161995 4.628456
v -23.313053 -57.531525 4.628456
v -22.079533 -58.336662 6.242164
v 7.543431 -61.232063 4.628450
v 7.543431 -60.393246 6.242160
v -7.884809 -60.393246 6.242160
v -7.884809 -59.401630 6.242164
v 7.543431 -59.401630 6.242164
v -7.884809 -58.583012 4.628455
v 7.543431 -58.583012 4.628454
v -7.884809 -61.232063 4.628451
v -20.974066 -54.061367 -7.736601
v -23.313053 -55.848370 -4.628490
v 22.971676 -55.848370 -4.628492
v 21.035995 -54.061367 -7.736602
v -21.196745 -7.213570 -5.896473
v -23.313053 -8.231021 -4.628473
v 22.971676 -8.231021 -4.628479
v 20.588131 -7.213570 -5.896473
v 21.035995 -51.392170 -7.736602
v -20.974066 -51.392170 -7.736601
v 22.971676 -14.192114 -4.628479
v -23.313053 -14.192114 -4.628475
v -20.675571 -16.279490 -7.956180
v 20.628437 -16.279490 -7.956184
v -23.313053 -21.855661 -4.628480
v -20.675571 -20.160784 -7.956183
v 20.628437 -20.160784 -7.956185
v 22.971676 -21.855661 -4.628481
v 22.971676 -48.266041 -4.628490
v -23.313053 -48.266041 -4.628488
v -21.196745 -6.309347 -5.896473
v 20.588131 -6.309347 -5.896473
v 22.971676 -5.531012 -4.628479
v -23.313053 -5.531012 -4.628473
v -23.313053 -59.161995 -4.628491
v -22.079533 -58.336662 -6.242200
v -23.313053 -57.531525 -4.628491
v 22.971676 -59.161995 -4.628492
v 22.008842 -58.336662 -6.242200
v 7.543431 -60.393246 -6.242204
v 7.543431 -61.232063 -4.628495
v 22.971676 -57.531525 -4.628492
v -7.884809 -60.393246 -6.242204
v 7.543431 -59.401630 -6.242200
v -7.884809 -59.401630 -6.242200
v 7.543431 -58.583012 -4.628491
v -7.884809 -58.583012 -4.628491
v -7.884809 -61.232063 -4.628494
vt 0.880248 0.000000
vt 0.800224 0.000000
vt 0.800225 0.600000
vt 0.880248 0.600000
vt 0.880248 0.000000
vt 0.880248 0.600000
vt 0.960271 0.600000
vt 0.960271 0.000000
vt 0.800224 0.600000
vt 0.800224 0.000000
vt 0.400112 0.000000
vt 0.400112 0.600000
vt 0.400112 0.600000
vt 0.400112 0.000000
vt 0.000000 0.000000
vt 0.000000 0.600000
vt 0.000000 0.600000
vt 0.000000 1.000000
vt 0.080024 1.000000
vt 0.080023 0.600000
vt 0.989039 0.379400
vt 1.000000 0.400000
vt 1.000000 0.000000
vt 0.989038 0.018289
vt 0.233317 0.616592
vt 0.233317 0.979645
vt 0.256392 0.979645
vt 0.256392 0.616592
vt 0.149666 0.979890
vt 0.149666 0.622939
vt 0.131621 0.600000
vt 0.131621 0.999995
vt 0.283416 0.600000
vt 0.283416 0.999995
vt 0.283416 0.983270
vt 0.310285 1.000000
vt 0.310285 0.600000
vt 0.283416 0.620212
vt 0.553310 0.665528
vt 0.553310 0.600000
vt 0.526441 0.627017
vt 0.526441 0.650084
vt 0.580178 0.638511
vt 0.607047 0.665528
vt 0.607047 0.600000
vt 0.580178 0.615444
vt 0.512491 0.607133
vt 0.526441 0.614091
vt 0.526441 0.600000
vt 0.633916 0.614647
vt 0.633916 0.648190
vt 0.662683 0.666230
vt 0.662683 0.600000
vt 0.989038 0.377208
vt 0.989038 0.020252
vt 0.960271 0.000000
vt 0.960271 0.400000
vt 0.793496 0.981650
vt 0.800224 0.999995
vt 0.800224 0.600000
vt 0.793496 0.620543
vt 0.785679 0.981650
vt 0.776884 0.999995
vt 0.785679 0.620543
vt 0.776884 0.600000
vt 0.498541 0.600000
vt 0.485992 0.606416
vt 0.498541 0.615664
vt 0.762934 0.866668
vt 0.748984 0.866668
vt 0.748984 0.991678
vt 0.762934 1.000000
vt 0.361892 0.866592
vt 0.370464 0.866593
vt 0.370464 0.733261
vt 0.361892 0.733261
vt 0.379671 0.608250
vt 0.379671 0.989264
vt 0.377541 0.866663
vt 0.377541 0.733332
vt 0.386631 0.999995
vt 0.762934 0.733335
vt 0.748984 0.733334
vt 0.762933 0.600000
vt 0.748984 0.610660
vt 0.386631 0.600000
vt 0.183218 0.979890
vt 0.183218 0.622939
vt 0.337153 0.620212
vt 0.310285 0.600000
vt 0.310285 1.000000
vt 0.337153 0.983270
vt 0.989038 0.781711
vt 1.000000 0.800000
vt 1.000000 0.400000
vt 0.989039 0.420600
vt 0.183218 0.620350
vt 0.183218 0.983403
vt 0.206293 0.983403
vt 0.206293 0.620350
vt 0.131621 0.999995
vt 0.131621 0.600000
vt 0.113576 0.622939
vt 0.113576 0.979890
vt 0.720217 0.618039
vt 0.691450 0.600000
vt 0.691450 0.666230
vt 0.720217 0.651582
vt 0.720217 0.651582
vt 0.748984 0.666230
vt 0.748984 0.600000
vt 0.720217 0.618039
vt 0.233317 0.999995
vt 0.233317 0.600000
vt 0.607047 0.638511
vt 0.633916 0.665528
vt 0.633916 0.600000
vt 0.607047 0.615444
vt 0.553310 0.650084
vt 0.580178 0.665528
vt 0.580178 0.600000
vt 0.553310 0.627017
vt 0.989038 0.400000
vt 0.960272 0.420252
vt 0.960271 0.777208
vt 0.989038 0.800000
vt 0.806953 0.981650
vt 0.806953 0.620543
vt 0.800224 0.600000
vt 0.800224 0.999995
vt 0.823565 0.999995
vt 0.814770 0.981650
vt 0.814770 0.620543
vt 0.823565 0.600000
vt 0.512491 0.600000
vt 0.498541 0.607133
vt 0.512491 0.614091
vt 0.776884 0.600000
vt 0.762934 0.608322
vt 0.762934 0.733332
vt 0.776884 0.733332
vt 0.386631 0.606416
vt 0.399180 0.615664
vt 0.399180 0.600000
vt 0.337153 0.733402
vt 0.337153 0.866734
vt 0.345726 0.866734
vt 0.345726 0.733402
vt 0.354932 0.991745
vt 0.354932 0.610731
vt 0.352802 0.866663
vt 0.352802 0.733332
vt 0.361892 0.600000
vt 0.762934 0.866666
vt 0.776884 0.866665
vt 0.776884 1.000000
vt 0.762934 0.989340
vt 0.361892 0.999995
vt 0.080024 0.622939
vt 0.080024 0.979890
vt 0.662683 0.651582
vt 0.691450 0.666230
vt 0.691450 0.600000
vt 0.662683 0.618039
vn -0.8632 0.5049 0.0000
vn -1.0000 0.0000 0.0000
vn 1.0000 -0.0000 0.0000
vn -0.0000 0.0000 -1.0000
vn 0.0000 -0.0000 1.0000
vn 0.0000 1.0000 0.0000
vn -0.5050 0.8631 0.0000
vn -0.0000 0.7800 -0.6258
vn -0.0000 -0.8471 -0.5314
vn -0.0000 -0.7051 -0.7091
vn -0.0000 0.8669 -0.4984
vn 0.7990 0.0000 -0.6013
vn -0.8488 0.0000 -0.5286
vn -0.8588 0.0000 -0.5124
vn -0.8176 0.0000 -0.5757
vn -0.0000 0.8911 -0.4538
vn -0.0000 -0.8522 -0.5231
vn 0.5140 0.0000 -0.8578
vn -0.4697 0.0000 -0.8828
vn 0.7945 0.0000 -0.6073
vn -0.1197 0.8674 -0.4830
vn -0.0000 -0.8918 -0.4524
vn -0.0644 -0.9011 -0.4288
vn -0.0000 0.8873 -0.4612
vn 0.1202 0.8629 -0.4909
vn 0.0636 -0.8990 -0.4333
vn 0.0000 0.8669 0.4984
vn 0.0000 0.7800 0.6258
vn 0.0000 -0.8471 0.5314
vn 0.7837 -0.0000 0.6211
vn -0.8176 -0.0000 0.5757
vn 0.0000 -0.7051 0.7091
vn 0.7990 0.0000 0.6013
vn -0.8488 0.0000 0.5286
vn 0.0000 0.8911 0.4538
vn 0.0000 -0.8522 0.5231
vn 0.5140 0.0000 0.8578
vn -0.4697 -0.0000 0.8828
vn 0.7945 0.0000 0.6073
vn -0.1197 0.8674 0.4830
vn -0.8588 0.0000 0.5124
vn 0.0000 -0.8918 0.4524
vn -0.0644 -0.9011 0.4288
vn 0.0000 0.8873 0.4612
vn 0.1202 0.8629 0.4909
vn 0.0636 -0.8990 0.4333
vn 0.7837 0.0000 -0.6211
s 1
f 1/1/1 2/2/1 3/3/2 4/4/2
s off
f 5/5/3 6/6/3 7/7/3 8/8/3
f 6/9/4 5/10/4 3/11/4 2/12/4
f 1/13/5 4/14/5 8/15/5 7/16/5
f 6/17/6 2/18/6 1/19/7 7/20/6
s 1
f 9/21/8 10/22/8 11/23/8 12/24/8
f 13/25/4 14/26/4 15/27/4 16/28/4
f 17/29/9 18/30/9 19/31/9 20/32/9
f 21/33/10 16/28/10 15/27/10 22/34/10
f 13/35/11 23/36/11 24/37/11 14/38/11
f 24/39/12 22/40/12 15/41/12 14/42/12
f 16/43/13 21/44/13 23/45/13 13/46/13
f 25/47/14 26/48/14 27/49/14
f 28/50/15 17/51/15 20/52/15 29/53/15
f 30/54/16 28/55/16 29/56/16 31/57/16
f 32/58/17 33/59/17 34/60/17 35/61/17
f 32/58/18 12/62/18 11/63/18 33/59/18
f 35/61/4 9/64/4 12/62/4 32/58/4
f 9/64/19 35/61/19 34/60/19 10/65/19
f 36/66/20 37/67/20 38/68/20
f 39/69/21 40/70/21 25/71/21 27/72/21
f 41/73/4 42/74/4 43/75/4 40/76/4
f 25/77/4 40/76/4 43/75/4
f 42/74/4 41/73/4 38/78/4
f 42/74/22 44/79/22 45/80/22 43/75/22
f 38/78/23 37/81/23 44/79/23 42/74/23
f 40/70/24 39/69/24 46/82/24 41/83/24
f 41/83/25 46/82/25 36/84/25 38/85/25
f 43/75/26 45/80/26 26/86/26 25/77/26
f 18/30/4 17/29/4 28/87/4 30/88/4
f 47/89/27 48/90/27 49/91/27 50/92/27
f 51/93/28 52/94/28 53/95/28 54/96/28
f 47/97/5 50/98/5 55/99/5 56/100/5
f 57/101/29 58/102/29 59/103/29 60/104/29
f 59/105/30 58/106/30 61/107/30 62/108/30
f 63/109/31 64/110/31 57/111/31 60/112/31
f 55/99/32 65/113/32 66/114/32 56/100/32
f 56/115/33 66/116/33 48/117/33 47/118/33
f 50/119/34 49/120/34 65/121/34 55/122/34
f 64/123/35 63/124/35 62/125/35 61/126/35
f 67/127/36 68/128/36 69/129/36 70/130/36
f 70/130/37 52/131/37 51/132/37 67/127/37
f 67/127/5 51/132/5 54/133/5 68/128/5
f 68/128/38 54/133/38 53/134/38 69/129/38
f 71/135/39 72/136/39 73/137/39
f 74/138/40 75/139/40 76/140/40 77/141/40
f 78/142/41 75/143/41 74/144/41
f 79/145/5 76/146/5 80/147/5 81/148/5
f 75/149/5 80/147/5 76/146/5
f 81/148/5 72/150/5 79/145/5
f 81/148/42 80/147/42 82/151/42 83/152/42
f 81/148/43 83/152/43 73/153/43 72/150/43
f 76/140/44 79/154/44 84/155/44 77/141/44
f 71/156/45 84/155/45 79/154/45 72/157/45
f 80/147/46 75/149/46 78/158/46 82/151/46
f 62/159/5 63/160/5 60/104/5 59/103/5
f 30/161/47 31/162/47 19/163/47 18/164/47
