# Blender v2.79 (sub 6) OBJ File: ''
# www.blender.org
mtllib platform.mtl
o Cube_Cube.002
v 30.212542 -2.418693 25.366438
v 30.212542 -2.418693 25.366438
v 30.212542 -2.418693 25.366438
v 21.280035 -2.418693 34.298943
v 21.280035 -2.418693 34.298943
v 21.280035 -2.418693 34.298943
v 21.280035 -2.418693 -31.017078
v 21.280035 -2.418693 -31.017078
v 21.280035 -2.418693 -31.017078
v 30.212542 -2.418693 -22.084572
v 30.212542 -2.418693 -22.084572
v -35.103481 -2.418693 -22.084572
v -35.103481 -2.418693 -22.084572
v -26.170975 -2.418693 -31.017078
v -26.170975 -2.418693 -31.017078
v -26.170975 -2.418693 34.298943
v -26.170975 -2.418693 34.298943
v -35.103481 -2.418693 25.366438
v -35.103481 -2.418693 25.366438
v -35.103481 -2.418693 25.366438
v -30.858095 -2.418693 40.750732
v -30.858095 -2.418693 40.750732
v -30.858095 -2.418693 40.750732
v -41.555275 -2.418693 30.053558
v -41.555275 -2.418693 30.053558
v -41.555275 5.008358 30.053558
v -41.555275 5.008358 30.053558
v -30.858095 5.008358 40.750732
v -30.858095 5.008358 40.750732
v -30.858095 5.008358 40.750732
v -41.555275 -2.418693 -26.771692
v -41.555275 -2.418693 -26.771692
v -41.555275 -2.418693 -26.771692
v -30.858095 -2.418693 -37.468872
v -30.858095 -2.418693 -37.468872
v -30.858095 -2.418693 -37.468872
v -30.858095 5.008358 -37.468872
v -30.858095 5.008358 -37.468872
v -30.858095 5.008358 -37.468872
v -41.555275 5.008358 -26.771692
v -41.555275 5.008358 -26.771692
v -41.555275 5.008358 -26.771692
v 36.664333 -2.418693 30.053558
v 36.664333 -2.418693 30.053558
v 25.967155 -2.418693 40.750732
v 25.967155 -2.418693 40.750732
v 25.967155 5.008358 40.750732
v 25.967155 5.008358 40.750732
v 36.664333 5.008358 30.053558
v 36.664333 5.008358 30.053558
v 25.967155 -2.418693 -37.468872
v 25.967155 -2.418693 -37.468872
v 36.664333 -2.418693 -26.771692
v 36.664333 -2.418693 -26.771692
v 36.664333 -2.418693 -26.771692
v 36.664333 5.008358 -26.771692
v 36.664333 5.008358 -26.771692
v 36.664333 5.008358 -26.771692
v 25.967155 5.008358 -37.468872
v 25.967155 5.008358 -37.468872
v 27.982649 -1.528759 -20.464590
v 27.982649 -1.528759 23.746456
v 27.982649 -1.528759 23.746456
v -24.550993 -1.528759 -28.787188
v 19.660053 -1.528759 -28.787188
v 19.660053 -1.528759 -28.787188
v -32.873589 -1.528759 23.746456
v -32.873589 -1.528759 23.746456
v -32.873589 -1.528759 -20.464590
v -24.550993 -1.528759 32.069054
v 19.660053 -1.528759 32.069054
v 19.660053 -1.528759 32.069054
v 27.982649 -0.287945 -20.464590
v 27.982649 -0.287945 -20.464590
v 27.982649 -0.287945 23.746456
v 27.982649 -0.287945 23.746456
v 27.982649 -0.287945 23.746456
v -24.550993 -0.287945 -28.787188
v -24.550993 -0.287945 -28.787188
v 19.660053 -0.287945 -28.787188
v 19.660053 -0.287945 -28.787188
v 19.660053 -0.287945 -28.787188
v -32.873589 -0.287945 23.746456
v -32.873589 -0.287945 23.746456
v -32.873589 -0.287945 23.746456
v -32.873589 -0.287945 -20.464590
v -32.873589 -0.287945 -20.464590
v -24.550993 -0.287945 32.069054
v -24.550993 -0.287945 32.069054
v 19.660053 -0.287945 32.069054
v 19.660053 -0.287945 32.069054
v 19.660053 -0.287945 32.069054
vt 0.349925 0.249189
vt 0.366367 0.422854
vt 0.026677 0.422854
vt 0.010236 0.249190
vt 0.366367 0.010142
vt 0.349925 0.183806
vt 0.010236 0.183806
vt 0.026677 0.010142
vt 0.672765 0.824501
vt 0.674646 0.783068
vt 0.725986 0.783068
vt 0.727868 0.824501
vt 0.433499 0.706554
vt 0.386838 0.660321
vt 0.386838 0.414723
vt 0.433499 0.368490
vt 0.681371 0.368490
vt 0.728032 0.414723
vt 0.728032 0.660321
vt 0.681371 0.706554
vt 0.076225 0.459428
vt 0.251496 0.443137
vt 0.251496 0.779711
vt 0.076225 0.796002
vt 0.989764 0.363006
vt 0.814492 0.346715
vt 0.814492 0.010142
vt 0.989764 0.026433
vt 0.010236 0.459428
vt 0.010236 0.796002
vt 0.337957 0.779711
vt 0.271968 0.779711
vt 0.271968 0.443137
vt 0.337957 0.443137
vt 0.748504 0.010142
vt 0.748504 0.346716
vt 0.386838 0.056375
vt 0.414981 0.076633
vt 0.414981 0.281715
vt 0.386838 0.301973
vt 0.433499 0.010142
vt 0.453945 0.038027
vt 0.728032 0.056375
vt 0.699889 0.076633
vt 0.660926 0.038026
vt 0.681371 0.010142
vt 0.660926 0.320322
vt 0.681371 0.348206
vt 0.433499 0.348206
vt 0.453945 0.320322
vt 0.699889 0.281715
vt 0.728032 0.301973
vt 0.790351 0.803631
vt 0.846971 0.807454
vt 0.850462 0.943117
vt 0.793842 0.939293
vt 0.762233 0.383290
vt 0.803112 0.395056
vt 0.790320 0.530169
vt 0.748504 0.528305
vt 0.752250 0.948278
vt 0.748504 0.802673
vt 0.790320 0.581039
vt 0.748504 0.582903
vt 0.870933 0.893807
vt 0.912781 0.892849
vt 0.916272 0.943601
vt 0.874680 0.948278
vt 0.803112 0.716153
vt 0.762233 0.727918
vt 0.874680 0.748202
vt 0.916272 0.757187
vt 0.752250 0.748202
vt 0.793842 0.752879
vt 0.386838 0.762808
vt 0.423141 0.726838
vt 0.615990 0.726838
vt 0.652293 0.762808
vt 0.652293 0.953888
vt 0.615990 0.989858
vt 0.423141 0.989858
vt 0.386838 0.953888
vt 0.972891 0.753364
vt 0.969401 0.889026
vt 0.847071 0.530169
vt 0.847071 0.581039
vt 0.972891 0.939778
vt 0.859863 0.716153
vt 0.850462 0.756702
vt 0.674646 0.726838
vt 0.725986 0.726838
vt 0.859863 0.395056
vn 0.0000 0.0000 -1.0000
vn -1.0000 0.0000 0.0000
vn 0.2197 0.9505 0.2197
vn 0.0000 -1.0000 0.0000
vn 1.0000 0.0000 0.0000
vn 0.0000 0.0000 1.0000
vn 0.7071 0.0000 -0.7071
vn 0.7071 0.0000 0.7071
vn -0.7071 0.0000 0.7071
vn -0.7071 0.0000 -0.7071
vn 0.0000 1.0000 0.0000
vn -0.3707 0.9288 0.0000
vn 0.3707 0.9288 0.0000
vn -0.2197 0.9505 -0.2197
vn -0.2197 0.9505 0.2197
vn 0.0000 0.9288 -0.3707
vn 0.0000 0.9288 0.3707
vn 0.2197 0.9505 -0.2197
usemtl platform
s off
f 45/1/1 21/2/1 28/3/1
f 45/1/1 28/3/1 47/4/1
f 53/5/2 43/6/2 49/7/2
f 53/5/2 49/7/2 56/8/2
f 1/9/3 62/10/3 71/11/3
f 1/9/3 71/11/3 4/12/3
f 59/13/4 57/14/4 50/15/4
f 50/15/4 48/16/4 29/17/4
f 29/17/4 26/18/4 40/19/4
f 40/19/4 37/20/4 59/13/4
f 59/13/4 50/15/4 29/17/4
f 29/17/4 40/19/4 59/13/4
f 24/21/5 31/22/5 41/23/5
f 24/21/5 41/23/5 27/24/5
f 34/25/6 51/26/6 60/27/6
f 34/25/6 60/27/6 38/28/6
f 22/29/7 24/21/7 27/24/7
f 22/29/7 27/24/7 30/30/7
f 39/31/8 42/32/8 32/33/8
f 39/31/8 32/33/8 35/34/8
f 58/35/9 60/27/9 51/26/9
f 58/35/9 51/26/9 54/36/9
f 47/4/10 49/7/10 43/6/10
f 47/4/10 43/6/10 45/1/10
f 36/37/11 14/38/11 7/39/11
f 36/37/11 7/39/11 52/40/11
f 33/41/11 12/42/11 14/38/11
f 33/41/11 14/38/11 36/37/11
f 23/43/11 16/44/11 18/45/11
f 23/43/11 18/45/11 25/46/11
f 2/47/11 44/48/11 55/49/11
f 2/47/11 55/49/11 10/50/11
f 25/46/11 18/45/11 12/42/11
f 25/46/11 12/42/11 33/41/11
f 44/48/11 2/47/11 5/51/11
f 44/48/11 5/51/11 46/52/11
f 52/40/11 7/39/11 10/50/11
f 52/40/11 10/50/11 55/49/11
f 46/52/11 5/51/11 16/44/11
f 46/52/11 16/44/11 23/43/11
f 61/53/5 73/54/5 75/55/5
f 61/53/5 75/55/5 63/56/5
f 19/57/12 67/58/12 69/59/12
f 19/57/12 69/59/12 13/60/12
f 63/56/13 3/61/13 11/62/13
f 63/56/13 11/62/13 61/53/13
f 13/60/14 69/59/14 64/63/14
f 13/60/14 64/63/14 15/64/14
f 17/65/15 70/66/15 68/67/15
f 17/65/15 68/67/15 20/68/15
f 15/64/16 64/63/16 65/69/16
f 15/64/16 65/69/16 8/70/16
f 6/71/17 72/72/17 70/66/17
f 6/71/17 70/66/17 17/65/17
f 9/73/18 66/74/18 61/53/18
f 9/73/18 61/53/18 11/62/18
f 78/75/11 86/76/11 83/77/11
f 83/77/11 88/78/11 90/79/11
f 90/79/11 76/80/11 74/81/11
f 74/81/11 80/82/11 78/75/11
f 78/75/11 83/77/11 90/79/11
f 90/79/11 74/81/11 78/75/11
f 72/72/6 91/83/6 89/84/6
f 72/72/6 89/84/6 70/66/6
f 69/59/10 87/85/10 79/86/10
f 69/59/10 79/86/10 64/63/10
f 70/66/9 89/84/9 84/87/9
f 70/66/9 84/87/9 68/67/9
f 64/63/1 79/86/1 81/88/1
f 64/63/1 81/88/1 65/69/1
f 66/74/7 82/89/7 73/54/7
f 66/74/7 73/54/7 61/53/7
f 62/10/8 77/90/8 92/91/8
f 62/10/8 92/91/8 71/11/8
f 67/58/2 85/92/2 87/85/2
f 67/58/2 87/85/2 69/59/2
