# Blender v2.79 (sub 6) OBJ File: ''
# www.blender.org
mtllib plate.mtl
o Cube_Cube.001
v 13.342661 -4.127090 -13.342661
v 13.342661 -4.127090 13.342661
v -13.342663 -4.127090 13.342657
v -13.342655 -4.127090 -13.342666
v 17.215176 0.041408 -17.215158
v 17.215157 0.041408 17.215178
v -17.215174 0.041408 17.215160
v -17.215166 0.041408 -17.215168
v 17.215172 -2.042841 -17.215162
v 17.215160 -2.042841 17.215172
v -17.215172 -2.042841 17.215162
v -17.215162 -2.042841 -17.215172
v 9.991550 -4.127090 -9.991550
v 9.991550 -4.127090 9.991549
v -9.991546 -4.127090 -9.991555
v -9.991551 -4.127090 9.991548
v 9.991550 -4.972027 -9.991550
v 9.991550 -4.972027 9.991549
v -9.991546 -4.972027 -9.991555
v -9.991551 -4.972027 9.991548
vt 0.561586 0.556237
vt 0.500000 0.604902
vt 0.132754 0.604902
vt 0.071168 0.556237
vt 0.000000 0.500000
vt 0.000000 0.000000
vt 0.632754 0.000000
vt 0.632754 0.500000
vt 0.709362 0.290196
vt 0.709362 0.790196
vt 0.671058 0.790196
vt 0.671058 0.290196
vt 0.709362 0.290196
vt 0.747666 0.290196
vt 0.747666 0.790196
vt 0.785970 0.290196
vt 0.785970 0.790196
vt 0.747666 0.790196
vt 0.561586 0.943763
vt 0.632754 0.500000
vt 0.632754 1.000000
vt 0.671058 0.790196
vt 0.632754 0.790196
vt 0.632754 0.290196
vt 0.071168 0.943763
vt 0.000000 1.000000
vt 0.000000 0.500000
vt 0.817027 0.580392
vt 0.801498 0.580392
vt 0.801498 0.290196
vt 0.817027 0.290196
vt 0.132754 0.895098
vt 0.500000 0.895098
vt 1.000000 0.000000
vt 1.000000 0.290196
vt 0.632754 0.290196
vt 0.632754 0.000000
vt 0.817027 0.290196
vt 0.832555 0.290196
vt 0.832555 0.580392
vt 0.817027 0.580392
vt 0.848083 0.580392
vt 0.832555 0.580392
vt 0.848083 0.290196
vt 0.801498 0.580392
vt 0.785970 0.580392
vt 0.785970 0.290196
vt 0.801498 0.290196
vn 0.0000 1.0000 0.0000
vn 0.0000 -1.0000 -0.0000
vn -1.0000 -0.0000 -0.0000
vn 0.0000 -0.0000 -1.0000
vn 1.0000 -0.0000 0.0000
vn -0.0000 0.8806 0.4739
vn -0.0000 -0.0000 1.0000
vn 0.4739 0.8806 0.0000
vn 0.0000 0.8806 -0.4739
vn -0.4739 0.8806 0.0000
usemtl Material.003
s off
f 1/1/1 13/2/1 14/3/1
f 1/1/1 14/3/1 2/4/1
f 5/5/2 6/6/2 7/7/2
f 5/5/2 7/7/2 8/8/2
f 9/9/3 10/10/3 6/11/3
f 9/9/3 6/11/3 5/12/3
f 10/10/4 11/13/4 7/14/4
f 10/10/4 7/14/4 6/15/4
f 11/16/5 12/17/5 8/18/5
f 11/16/5 8/18/5 7/14/5
f 4/19/6 1/1/6 9/20/6
f 4/19/6 9/20/6 12/21/6
f 5/12/7 8/22/7 12/23/7
f 5/12/7 12/23/7 9/24/7
f 3/25/8 4/19/8 12/21/8
f 3/25/8 12/21/8 11/26/8
f 2/4/9 3/25/9 11/26/9
f 2/4/9 11/26/9 10/27/9
f 1/1/10 2/4/10 10/27/10
f 1/1/10 10/27/10 9/20/10
f 15/28/7 19/29/7 17/30/7
f 15/28/7 17/30/7 13/31/7
f 3/25/1 16/32/1 15/33/1
f 3/25/1 15/33/1 4/19/1
f 2/4/1 14/3/1 16/32/1
f 2/4/1 16/32/1 3/25/1
f 13/2/1 1/1/1 4/19/1
f 13/2/1 4/19/1 15/33/1
f 17/34/1 19/35/1 20/36/1
f 17/34/1 20/36/1 18/37/1
f 14/38/4 18/39/4 20/40/4
f 14/38/4 20/40/4 16/41/4
f 13/42/3 17/43/3 18/39/3
f 13/42/3 18/39/3 14/44/3
f 16/45/5 20/46/5 19/47/5
f 16/45/5 19/47/5 15/48/5
