# Blender v2.79 (sub 7) OBJ File: 'box.blend'
# www.blender.org
mtllib silla.mtl
o Cube_Cube.001
v 3.740712 -23.870741 7.438256
v 3.740712 -23.870741 5.810486
v 5.214437 -10.000849 6.609897
v 5.214437 -10.000849 8.237667
v -9.843277 -10.000849 -2.597415
v -9.843277 -10.000849 -4.487844
v -6.194469 -10.000849 -4.487844
v -6.194469 -10.000849 -2.597416
v 7.389517 -23.870741 -3.611940
v 7.389517 -23.870741 -4.728622
v 8.449040 -23.870741 -4.728622
v 8.449040 -23.870741 -3.611940
v -9.794994 -23.870741 -3.611939
v -9.794994 -23.870741 -4.728621
v -8.587841 -23.870741 -4.728621
v -8.587841 -23.870741 -3.611939
v -4.939035 -23.870741 -4.728622
v -4.939035 -23.870741 -3.611940
v 3.740711 -23.870741 -4.728622
v 3.740711 -23.870741 -3.611940
v -9.794994 -27.090345 -4.728621
v -9.794994 -23.870741 -1.721511
v -9.794994 -23.870741 5.810486
v -9.794994 -23.870741 7.438256
v -9.794994 -23.870741 7.803895
v -9.794994 -27.090345 7.803895
v -9.794994 -27.090345 6.180229
v 8.449040 -27.090345 6.180228
v 8.449040 -27.090345 7.803895
v 8.449040 -23.870741 7.803895
v 8.449040 -23.870741 7.438255
v 8.449040 -23.870741 5.810485
v 8.449040 -23.870741 -1.721512
v 8.449040 -27.090345 -4.728622
v -8.587841 -23.870741 7.438256
v -8.587841 -23.870741 5.810486
v -9.843276 -10.000849 6.609898
v -9.843276 -10.000849 8.237667
v 7.389518 -23.870741 -1.721512
v 3.740711 -23.870741 -1.721512
v 5.214437 -10.000849 -2.597416
v 8.863243 -10.000849 -2.597416
v -4.939034 -23.870741 -1.721512
v -8.587841 -23.870741 -1.721512
v 3.740712 -23.870741 7.803895
v 7.389518 -23.870741 7.438255
v 7.389518 -23.870741 7.803895
v 7.389518 -23.870741 5.810485
v 8.863244 -10.000849 6.609897
v -4.939034 -23.870741 7.438256
v -6.194469 -10.000849 8.237667
v -4.939034 -23.870741 7.803895
v -4.939034 -23.870741 5.810486
v -8.587841 -23.870741 7.803895
v 5.214437 -10.000849 -4.487845
v 8.863244 -10.000849 8.237667
v 8.863243 -10.000849 -4.487845
v 2.452675 -27.090345 7.803895
v -3.628670 -27.090345 7.803895
v -6.194469 -10.000849 6.609898
v 8.449039 -44.821587 7.803895
v 2.452675 -47.019180 7.803895
v -3.628670 -47.019180 6.180228
v -9.794995 -44.821587 6.180229
v -9.794995 -44.821587 7.803895
v -3.628670 -47.019180 7.803895
v 8.449039 -44.821587 6.180228
v 2.452675 -47.019180 6.180228
vt 0.886187 0.507086
vt 0.901249 0.506867
vt 0.901249 0.992990
vt 0.886187 0.993208
vt 0.702835 0.657935
vt 0.685342 0.657935
vt 0.685342 0.635296
vt 0.702835 0.635296
vt 0.536845 0.641870
vt 0.526512 0.641870
vt 0.526512 0.635296
vt 0.536845 0.635296
vt 0.536845 0.748489
vt 0.526512 0.748489
vt 0.526512 0.740999
vt 0.536845 0.740999
vt 0.526512 0.718361
vt 0.536845 0.718361
vt 0.526512 0.664508
vt 0.536845 0.664508
vt 0.122930 0.708456
vt 0.122930 0.821421
vt 0.112597 0.821421
vt 0.095103 0.821421
vt 0.025405 0.821421
vt 0.010342 0.821421
vt 0.006959 0.821421
vt 0.006958 0.708456
vt 0.021983 0.708456
vt 0.237794 0.708388
vt 0.252819 0.708388
vt 0.252819 0.821352
vt 0.249435 0.821352
vt 0.234372 0.821352
vt 0.164674 0.821352
vt 0.147180 0.821352
vt 0.136847 0.821352
vt 0.136847 0.708388
vt 0.977980 0.007009
vt 0.993042 0.006792
vt 0.993042 0.493988
vt 0.977981 0.494206
vt 0.563619 0.007216
vt 0.586809 0.006792
vt 0.586809 0.494511
vt 0.563619 0.494935
vt 0.735239 0.494849
vt 0.712048 0.494487
vt 0.712048 0.006792
vt 0.735239 0.007153
vt 0.642484 0.664508
vt 0.639100 0.664508
vt 0.639100 0.641870
vt 0.642484 0.641870
vt 0.623916 0.494929
vt 0.600726 0.494505
vt 0.600726 0.006792
vt 0.623916 0.007216
vt 0.624037 0.664508
vt 0.554339 0.664508
vt 0.554339 0.641870
vt 0.624037 0.641870
vt 0.772347 0.494844
vt 0.749156 0.494482
vt 0.749156 0.006792
vt 0.772347 0.007153
vt 0.642484 0.718361
vt 0.639100 0.718361
vt 0.624037 0.718361
vt 0.554339 0.718361
vt 0.642484 0.740999
vt 0.639100 0.740999
vt 0.917595 0.006792
vt 0.935086 0.007069
vt 0.935086 0.493203
vt 0.917595 0.492925
vt 0.624037 0.740999
vt 0.554339 0.740999
vt 0.637833 0.007216
vt 0.661023 0.006792
vt 0.661023 0.494506
vt 0.637833 0.494930
vt 0.642484 0.748489
vt 0.639100 0.748489
vt 0.624037 0.748489
vt 0.554339 0.748489
vt 0.964064 0.494289
vt 0.949003 0.494071
vt 0.949003 0.006792
vt 0.964064 0.007009
vt 0.886187 0.007069
vt 0.903679 0.006792
vt 0.903678 0.493006
vt 0.886187 0.493284
vt 0.549702 0.494936
vt 0.526512 0.494512
vt 0.526512 0.006792
vt 0.549702 0.007216
vt 0.823372 0.007069
vt 0.840863 0.006792
vt 0.840863 0.494082
vt 0.823372 0.494359
vt 0.382707 0.707440
vt 0.382707 0.820633
vt 0.375034 0.820633
vt 0.351839 0.820633
vt 0.296665 0.820633
vt 0.273470 0.820633
vt 0.266735 0.820633
vt 0.266735 0.707440
vt 0.304852 0.707440
vt 0.343510 0.707440
vt 0.674940 0.007153
vt 0.698131 0.006792
vt 0.698131 0.494488
vt 0.674940 0.494850
vt 0.917595 0.506786
vt 0.932656 0.507005
vt 0.932656 0.993208
vt 0.917595 0.992990
vt 0.872271 0.494276
vt 0.854780 0.493999
vt 0.854780 0.006792
vt 0.872271 0.007069
vt 0.639100 0.635296
vt 0.642484 0.635296
vt 0.624037 0.635296
vt 0.554339 0.635296
vt 0.716752 0.671518
vt 0.731815 0.671518
vt 0.731815 0.694156
vt 0.716752 0.694156
vt 0.685342 0.671518
vt 0.702835 0.671518
vt 0.702835 0.694156
vt 0.685342 0.694156
vt 0.716752 0.635296
vt 0.731815 0.635296
vt 0.731815 0.657935
vt 0.716752 0.657935
vt 0.786264 0.007153
vt 0.809455 0.006792
vt 0.809455 0.494481
vt 0.786264 0.494843
vt 0.266735 0.084054
vt 0.304852 0.006792
vt 0.526512 0.508519
vt 0.642484 0.508519
vt 0.642484 0.515093
vt 0.642484 0.537732
vt 0.642484 0.591584
vt 0.642484 0.614223
vt 0.642484 0.621713
vt 0.526512 0.621713
vt 0.021983 0.006792
vt 0.021983 0.086324
vt 0.006958 0.086324
vt 0.006958 0.006792
vt 0.237794 0.086262
vt 0.252819 0.086262
vt 0.396624 0.006792
vt 0.512595 0.006792
vt 0.512595 0.630178
vt 0.473398 0.707440
vt 0.434741 0.707440
vt 0.396624 0.630178
vt 0.237794 0.006792
vt 0.252819 0.006792
vt 0.671425 0.635296
vt 0.671425 0.673027
vt 0.656400 0.673027
vt 0.656400 0.635296
vt 0.757347 0.508519
vt 0.757347 0.621713
vt 0.656400 0.621713
vt 0.656400 0.508519
vt 0.343510 0.006792
vt 0.382707 0.084054
vn 0.9944 -0.1057 0.0000
vn 0.0000 -1.0000 0.0000
vn 1.0000 0.0000 0.0000
vn -1.0000 -0.0000 0.0000
vn 0.9959 0.0901 0.0000
vn -0.0000 -0.0630 -0.9980
vn 0.0000 -0.0575 0.9983
vn -0.0000 0.0575 -0.9983
vn -0.9944 0.1057 0.0000
vn -0.9959 -0.0901 0.0000
vn 0.0000 0.0630 0.9980
vn -0.0000 0.0000 -1.0000
vn 0.0000 -0.0000 1.0000
vn 0.3357 0.9420 0.0000
vn -0.3441 0.9389 0.0000
vn 0.0000 1.0000 0.0000
usemtl Silla
s 1
f 1/1/1 2/2/1 3/3/1 4/4/1
f 5/5/2 6/6/2 7/7/2 8/8/2
f 9/9/2 10/10/2 11/11/2 12/12/2
f 13/13/2 14/14/2 15/15/2 16/16/2
f 16/16/2 15/15/2 17/17/2 18/18/2
f 18/18/2 17/17/2 19/19/2 20/20/2
f 20/20/2 19/19/2 10/10/2 9/9/2
f 21/21/3 14/22/3 13/23/3 22/24/3 23/25/3 24/26/3 25/27/3 26/28/3 27/29/3
f 28/30/4 29/31/4 30/32/4 31/33/4 32/34/4 33/35/4 12/36/4 11/37/4 34/38/4
f 35/39/5 36/40/5 37/41/5 38/42/5
f 39/43/6 40/44/6 41/45/6 42/46/6
f 43/47/6 44/48/6 5/49/6 8/50/6
f 45/51/2 1/52/2 46/53/2 47/54/2
f 2/55/7 48/56/7 49/57/7 3/58/7
f 2/59/2 40/60/2 39/61/2 48/62/2
f 50/63/8 35/64/8 38/65/8 51/66/8
f 52/67/2 50/68/2 1/52/2 45/51/2
f 50/68/2 53/69/2 2/59/2 1/52/2
f 53/69/2 43/70/2 40/60/2 2/59/2
f 43/70/2 18/18/2 20/20/2 40/60/2
f 54/71/2 35/72/2 50/68/2 52/67/2
f 40/73/1 20/74/1 55/75/1 41/76/1
f 36/77/2 44/78/2 43/70/2 53/69/2
f 46/79/8 1/80/8 4/81/8 56/82/8
f 25/83/2 24/84/2 35/72/2 54/71/2
f 24/84/2 23/85/2 36/77/2 35/72/2
f 23/85/2 22/86/2 44/78/2 36/77/2
f 22/86/2 13/13/2 16/16/2 44/78/2
f 48/87/9 46/88/9 56/89/9 49/90/9
f 18/91/10 43/92/10 8/93/10 7/94/10
f 20/95/11 9/96/11 57/97/11 55/98/11
f 9/99/9 39/100/9 42/101/9 57/102/9
f 26/103/12 25/104/12 54/105/12 52/106/12 45/107/12 47/108/12 30/109/12 29/110/12 58/111/12 59/112/12
f 16/113/11 18/114/11 7/115/11 6/116/11
f 53/117/10 50/118/10 51/119/10 60/120/10
f 44/121/5 16/122/5 6/123/5 5/124/5
f 47/54/2 46/53/2 31/125/2 30/126/2
f 46/53/2 48/62/2 32/127/2 31/125/2
f 48/62/2 39/61/2 33/128/2 32/127/2
f 39/61/2 9/9/2 12/12/2 33/128/2
f 4/129/2 3/130/2 49/131/2 56/132/2
f 41/133/2 55/134/2 57/135/2 42/136/2
f 38/137/2 37/138/2 60/139/2 51/140/2
f 36/141/7 53/142/7 60/143/7 37/144/7
f 58/111/12 29/110/12 61/145/12 62/146/12
f 34/147/13 11/148/13 10/149/13 19/150/13 17/151/13 15/152/13 14/153/13 21/154/13
f 63/155/14 64/156/14 65/157/14 66/158/14
f 29/31/4 28/30/4 67/159/4 61/160/4
f 27/29/3 26/28/3 65/157/3 64/156/3
f 28/161/13 27/162/13 64/163/13 63/164/13 68/165/13 67/166/13
f 67/159/15 68/167/15 62/168/15 61/160/15
f 68/169/16 63/170/16 66/171/16 62/172/16
f 34/173/16 21/174/16 27/175/16 28/176/16
f 26/103/12 59/112/12 66/177/12 65/178/12
f 59/112/12 58/111/12 62/146/12 66/177/12
