# Blender v2.79 (sub 7) OBJ File: ''
# www.blender.org
mtllib suelo.mtl
o Grid.000
v 684.735413 -175.006943 889.468506
v 1209.595459 -56.029114 912.665771
v 1203.650513 -4.452255 787.086304
v 678.790527 -123.430069 763.888916
v 1516.210205 43.502316 938.046875
v 1510.265259 95.079170 812.467407
v 1197.705688 47.124538 661.506836
v 672.845703 -71.853271 638.309570
v 1504.320312 146.655991 686.887939
v 358.383087 -113.734863 635.994751
v 877.298035 56.819767 533.612671
v 352.438232 -62.158016 510.415314
v 1183.912964 156.351242 558.993774
v 1498.375488 198.232834 561.308472
v 37.975464 -104.039635 508.100555
v 556.890625 66.514999 405.718475
v 32.030640 -52.462826 382.521149
v 871.353210 108.396591 408.033234
v 1177.968140 207.928055 433.414276
v 550.945740 118.091827 280.139038
v 26.085754 -0.885982 256.941681
v 857.560486 217.623291 305.520050
v 1172.023193 259.504913 307.834808
v 545.000854 169.668640 154.559692
v 20.140930 50.690838 131.362350
v 851.615601 269.200134 179.940750
v -294.321777 8.809233 129.047607
v 224.593231 179.363831 26.665581
v -300.266663 60.386044 3.468227
v 539.056030 221.245453 28.980337
v 845.670776 320.776886 54.361382
v -929.192078 -23.377159 -1.161284
v -614.729431 18.504433 1.153470
v -410.276550 147.177475 -103.543304
v -935.136902 28.199652 -126.740654
v -95.814209 189.059052 -101.228554
v 218.648376 230.940643 -98.913795
v 525.263306 330.472107 -73.532745
v 839.725952 372.353699 -71.217987
v 204.541840 342.889893 -208.056015
v 194.833099 421.790192 -316.677246
v -119.629517 379.908600 -318.992004
v -109.920715 301.008301 -210.370773
v -1249.599609 -13.681942 -129.055405
v -738.846252 217.245087 -215.000275
v -1053.308350 175.363525 -217.315033
v -424.383118 259.126709 -212.685532
v 519.004639 384.771515 -205.741257
v -1202.040771 -426.296539 875.579956
v -887.578064 -384.414948 877.894775
v -898.200378 -334.409882 754.555176
v -1207.985596 -374.719666 750.000366
v 1830.673096 85.383980 940.361572
v 1824.728271 136.960846 814.782104
v 833.467285 426.653107 -203.426514
v 1165.022949 318.964294 183.021576
v 1159.853760 365.085266 50.767403
v 1154.355957 412.784943 -65.371918
v 1147.930054 468.534729 -201.111755
v 1492.502930 249.182175 437.256866
v 1468.008179 457.278046 -69.581909
v 1462.392578 510.416321 -198.797012
v 1473.997314 409.736084 46.339733
v 1480.223877 355.714325 177.872055
v 1480.758301 355.786102 177.874542
v 1795.003906 394.844971 186.885010
v 1789.059082 446.421753 61.305653
v 1486.722778 299.331146 315.153992
v 1487.149658 299.426300 315.065338
v 1800.948730 343.268158 312.464325
v 1468.601807 457.018677 -68.766365
v 1783.114258 497.998535 -64.273720
v 1776.855713 552.297974 -196.482239
v 1806.893799 291.691284 438.043793
v 1812.838379 240.114441 563.623169
v 1818.783447 188.537628 689.202759
v 1452.683838 589.316589 -307.418213
v 1767.146729 631.198242 -305.103455
v 1138.221313 547.434998 -309.732971
v 823.758545 505.553406 -312.047729
v 509.295898 463.671814 -314.362488
v -434.091980 338.027008 -321.306763
v -748.554993 296.145386 -323.621521
v -1063.017334 254.263840 -325.936279
v -1243.654785 -65.258751 -3.476039
v -1237.709717 -116.835564 122.103340
v -952.489441 -78.848595 124.202850
v -620.046448 -34.572296 126.649948
v 43.932922 -155.725494 633.945435
v 50.302612 -210.988693 768.500488
v 364.592438 -167.606339 767.161255
v 370.272797 -216.888535 887.153687
v 55.810059 -258.770142 884.838989
v -288.376953 -42.767574 254.626892
v -612.224670 -85.899147 252.243164
v -941.670837 -129.776306 249.818054
v -604.402893 -137.226044 377.836487
v -282.432068 -94.344406 380.206360
v -1231.764893 -168.412384 247.682678
v -930.852234 -180.704102 375.433563
v -920.033752 -231.631821 501.048920
v -596.581116 -188.552811 503.429596
v -1225.820068 -219.989212 373.262146
v -276.487244 -145.921295 505.785980
v -1219.875244 -271.566040 498.841522
v -270.532959 -197.579788 631.564209
v -588.750916 -239.933517 629.154663
v -909.209412 -282.585541 626.728394
v -580.650452 -293.089600 759.223877
v -1213.930420 -323.142853 624.421021
v -264.269470 -251.921448 763.875488
v -573.115417 -342.533356 880.209473
v -258.652649 -300.651733 882.524170
vt 0.616290 1.000000
vt 0.792009 0.997843
vt 0.791858 0.898871
vt 0.616139 0.901029
vt 0.897487 0.994949
vt 0.897335 0.895978
vt 0.791707 0.799900
vt 0.615988 0.802057
vt 0.897184 0.797006
vt 0.513474 0.801750
vt 0.689042 0.700622
vt 0.513323 0.702779
vt 0.794519 0.697728
vt 0.897033 0.698035
vt 0.410810 0.702472
vt 0.586378 0.601343
vt 0.410659 0.603501
vt 0.688891 0.601650
vt 0.794368 0.598757
vt 0.586226 0.502372
vt 0.410507 0.504529
vt 0.691704 0.499478
vt 0.794217 0.499785
vt 0.586075 0.403401
vt 0.410356 0.405558
vt 0.691552 0.400507
vt 0.307843 0.405251
vt 0.483410 0.304122
vt 0.307691 0.306280
vt 0.585924 0.304429
vt 0.691401 0.301536
vt 0.102665 0.305666
vt 0.205178 0.305973
vt 0.278233 0.204537
vt 0.102513 0.206695
vt 0.380746 0.204844
vt 0.483259 0.205151
vt 0.588737 0.202257
vt 0.691250 0.202564
vt 0.486064 0.097755
vt 0.487433 0.001227
vt 0.384920 0.000920
vt 0.383551 0.097448
vt 0.000000 0.206388
vt 0.178524 0.096834
vt 0.076010 0.096527
vt 0.281037 0.097141
vt 0.588577 0.098062
vt 0.001210 0.998159
vt 0.103723 0.998466
vt 0.102015 0.901283
vt 0.001059 0.899188
vt 1.000000 0.995256
vt 0.999849 0.896284
vt 0.691091 0.098368
vt 0.794425 0.398807
vt 0.793907 0.297186
vt 0.793768 0.205654
vt 0.793604 0.098675
vt 0.896883 0.600267
vt 0.896110 0.200821
vt 0.896117 0.098982
vt 0.896413 0.292179
vt 0.896571 0.395842
vt 0.896745 0.395841
vt 0.999093 0.401427
vt 0.998941 0.302456
vt 0.896736 0.504036
vt 0.896877 0.503964
vt 0.999244 0.500399
vt 0.896291 0.201461
vt 0.998790 0.203485
vt 0.998631 0.099289
vt 0.999395 0.599370
vt 0.999546 0.698342
vt 0.999697 0.797313
vt 0.897486 0.002455
vt 1.000000 0.002761
vt 0.794973 0.002148
vt 0.692460 0.001841
vt 0.589946 0.001534
vt 0.282406 0.000614
vt 0.179893 0.000307
vt 0.077379 0.000000
vt 0.000151 0.305359
vt 0.000302 0.404331
vt 0.093283 0.404609
vt 0.201658 0.404933
vt 0.410961 0.801653
vt 0.411123 0.907698
vt 0.513632 0.905125
vt 0.513777 0.999693
vt 0.411263 0.999386
vt 0.307994 0.504222
vt 0.202421 0.503907
vt 0.095023 0.503585
vt 0.203184 0.602880
vt 0.308145 0.603194
vt 0.000454 0.503302
vt 0.096763 0.602561
vt 0.098503 0.701538
vt 0.203947 0.701853
vt 0.000605 0.602273
vt 0.308296 0.702165
vt 0.000756 0.701245
vt 0.308448 0.801293
vt 0.204711 0.800930
vt 0.100244 0.800564
vt 0.205501 0.903431
vt 0.000907 0.800216
vt 0.308607 0.905570
vt 0.206237 0.998773
vt 0.308750 0.999080
vn -0.2205 0.8985 0.3795
vn -0.3142 0.8728 0.3734
vn -0.2205 0.8986 0.3795
vn -0.1770 0.8433 0.5075
vn -0.2309 0.7377 0.6344
vn -0.2058 0.7913 0.5757
vn -0.1009 0.7194 0.6872
vn -0.2061 0.7907 0.5765
vn -0.2074 0.7972 0.5669
vn -0.1108 0.7994 0.5905
vn -0.0705 0.4812 0.8738
vn -0.1390 0.6006 0.7874
vn -0.0970 0.6885 0.7187
vn -0.2069 0.7975 0.5668
vn -0.1248 0.9157 0.3820
vn -0.1239 0.9086 0.3988
vn -0.1250 0.9157 0.3820
vn -0.1368 0.9139 0.3821
vn -0.1353 0.9031 0.4075
vn -0.1255 0.9208 0.3693
vn -0.1316 0.9201 0.3689
vn -0.1222 0.9186 0.3758
vn -0.1189 0.9166 0.3818
vn -0.1215 0.9136 0.3881
usemtl Material.008
s 1
f 1/1/1 2/2/1 3/3/1 4/4/1
f 2/2/2 5/5/2 6/6/2 3/3/2
f 4/4/1 3/3/1 7/7/3 8/8/3
f 3/3/2 6/6/2 9/9/2 7/7/2
f 10/10/4 8/8/4 11/11/4 12/12/4
f 8/8/5 7/7/5 13/13/5 11/11/5
f 7/7/6 9/9/6 14/14/6 13/13/6
f 15/15/4 12/12/4 16/16/4 17/17/4
f 12/12/4 11/11/4 18/18/4 16/16/4
f 11/11/2 13/13/2 19/19/2 18/18/2
f 17/17/1 16/16/1 20/20/1 21/21/1
f 16/16/6 18/18/6 22/22/6 20/20/6
f 18/18/6 19/19/6 23/23/6 22/22/6
f 21/21/1 20/20/1 24/24/1 25/25/1
f 20/20/2 22/22/2 26/26/2 24/24/2
f 27/27/4 25/25/4 28/28/4 29/29/4
f 25/25/4 24/24/4 30/30/4 28/28/4
f 24/24/2 26/26/2 31/31/2 30/30/2
f 32/32/4 33/33/4 34/34/4 35/35/4
f 33/33/7 29/29/7 36/36/7 34/34/7
f 29/29/4 28/28/4 37/37/4 36/36/4
f 28/28/6 30/30/6 38/38/8 37/37/9
f 30/30/6 31/31/6 39/39/6 38/38/8
f 40/40/10 41/41/10 42/42/10 43/43/10
f 44/44/11 35/35/11 45/45/11 46/46/11
f 35/35/12 34/34/12 47/47/12 45/45/12
f 34/34/13 36/36/13 43/43/13 47/47/13
f 36/36/13 37/37/13 40/40/13 43/43/13
f 37/37/9 38/38/8 48/48/14 40/40/14
f 49/49/15 50/50/15 51/51/15 52/52/15
f 5/5/15 53/53/15 54/54/15 6/6/15
f 39/39/15 55/55/15 48/48/15 38/38/15
f 23/23/16 56/56/17 26/26/18 22/22/19
f 26/26/18 56/56/17 57/57/20 31/31/21
f 31/31/21 57/57/20 58/58/15 39/39/15
f 39/39/15 58/58/15 59/59/15 55/55/15
f 14/14/15 60/60/15 19/19/15 13/13/15
f 58/58/15 61/61/15 62/62/15 59/59/15
f 57/57/20 63/63/22 62/62/15 61/61/15 58/58/15
f 64/64/23 65/65/15 66/66/15 67/67/15 63/63/22
f 56/56/17 64/64/23 63/63/22 57/57/20
f 68/68/24 69/69/15 70/70/15 66/66/15 65/65/15 64/64/23
f 23/23/16 68/68/24 64/64/23 56/56/17
f 19/19/15 60/60/15 68/68/24 23/23/16
f 63/63/22 71/71/15 72/72/15 73/73/15 62/62/15
f 72/72/15 71/71/15 63/63/22 67/67/15
f 60/60/15 74/74/15 70/70/15 69/69/15 68/68/24
f 14/14/15 75/75/15 74/74/15 60/60/15
f 9/9/15 76/76/15 75/75/15 14/14/15
f 6/6/15 54/54/15 76/76/15 9/9/15
f 77/77/10 62/62/10 73/73/10 78/78/10
f 79/79/10 59/59/10 62/62/10 77/77/10
f 80/80/10 55/55/10 59/59/10 79/79/10
f 81/81/10 48/48/10 55/55/10 80/80/10
f 41/41/10 40/40/10 48/48/10 81/81/10
f 43/43/10 42/42/10 82/82/10 47/47/10
f 47/47/10 82/82/10 83/83/10 45/45/10
f 45/45/10 83/83/10 84/84/10 46/46/10
f 85/85/15 32/32/15 35/35/15 44/44/15
f 86/86/15 87/87/15 32/32/15 85/85/15
f 32/32/15 87/87/15 88/88/15 33/33/15
f 33/33/15 88/88/15 27/27/15 29/29/15
f 15/15/15 89/89/15 10/10/15 12/12/15
f 10/10/15 89/89/15 90/90/15 91/91/15
f 92/92/15 1/1/15 4/4/15 91/91/15
f 91/91/15 4/4/15 8/8/15 10/10/15
f 91/91/15 90/90/15 93/93/15 92/92/15
f 27/27/15 94/94/15 21/21/15 25/25/15
f 88/88/15 95/95/15 94/94/15 27/27/15
f 87/87/15 96/96/15 95/95/15 88/88/15
f 94/94/15 95/95/15 97/97/15 98/98/15
f 99/99/15 96/96/15 87/87/15 86/86/15
f 95/95/15 96/96/15 100/100/15 97/97/15
f 21/21/15 94/94/15 98/98/15 17/17/15
f 97/97/15 100/100/15 101/101/15 102/102/15
f 103/103/15 100/100/15 96/96/15 99/99/15
f 17/17/15 98/98/15 104/104/15 15/15/15
f 98/98/15 97/97/15 102/102/15 104/104/15
f 105/105/15 101/101/15 100/100/15 103/103/15
f 15/15/15 104/104/15 106/106/15 89/89/15
f 104/104/15 102/102/15 107/107/15 106/106/15
f 102/102/15 101/101/15 108/108/15 107/107/15
f 107/107/15 108/108/15 51/51/15 109/109/15
f 110/110/15 108/108/15 101/101/15 105/105/15
f 89/89/15 106/106/15 111/111/15 90/90/15
f 106/106/15 107/107/15 109/109/15 111/111/15
f 111/111/15 109/109/15 112/112/15 113/113/15
f 109/109/15 51/51/15 50/50/15 112/112/15
f 52/52/15 51/51/15 108/108/15 110/110/15
f 90/90/15 111/111/15 113/113/15 93/93/15
