# Blender v2.79 (sub 7) OBJ File: ''
# www.blender.org
mtllib torch.mtl
o Cylinder
v -3.118506 -1.198075 -2.494719
v -3.118506 -5.191658 -2.494719
v 0.006090 -5.191658 -3.993578
v 0.006091 -1.198075 -3.993578
v 3.126102 -5.191658 -2.485193
v 3.126102 -1.198075 -2.485193
v 3.892095 -5.191658 0.894596
v 3.892096 -1.198075 0.894596
v 1.727259 -5.191658 3.600732
v 1.727260 -1.198075 3.600732
v -1.738236 -5.191658 3.595445
v -1.754463 -5.191658 14.233199
v 1.711036 -5.191658 14.238485
v -3.894807 -5.191658 0.882716
v -1.738236 -1.198075 3.595445
v -3.894806 -1.198075 0.882716
v 1.711036 -1.198075 14.238485
v -1.754463 -1.198075 14.233199
v 0.623787 -8.121131 5.613225
v 0.623786 -13.312788 5.613225
v -5.613225 -13.312788 0.623787
v -5.613225 -8.121131 0.623787
v -0.623787 -13.312788 -5.613225
v -0.623787 -8.121131 -5.613225
v 5.613224 -13.312788 -0.623787
v 5.613224 -8.121131 -0.623787
v -3.118506 -7.987166 -2.494719
v 0.000000 7.987166 -0.000000
v -2.494719 -7.987166 3.118505
v 3.118509 -7.987166 2.494718
v 2.494718 -7.987166 -3.118505
v -4.773114 -13.346006 6.054049
v -6.069639 -13.346006 -4.855544
v 6.102872 -13.346006 4.882126
v 5.111259 -13.346006 -6.389298
v 1.110374 -23.198723 5.108319
v 1.110374 -12.743524 5.108319
v -1.124241 -12.743524 -5.105285
v -1.124241 -23.198723 -5.105285
v 5.101257 -23.193048 -1.116094
v 5.101258 -12.749198 -1.116095
v -5.101259 -12.749198 1.116095
v -5.101259 -23.193048 1.116095
v 1.015350 -23.198723 5.129109
v -1.219265 -23.198723 -5.084495
v -1.219265 -12.743524 -5.084495
v 1.015350 -12.743524 5.129109
vt 0.091504 0.879984
vt 0.091504 0.992303
vt 0.044367 0.993235
vt 0.044367 0.880916
vt 0.006682 0.990580
vt 0.006682 0.878261
vt 0.118519 0.863710
vt 0.007432 0.864731
vt 0.006682 0.816035
vt 0.117768 0.815013
vt 0.008786 0.782057
vt 0.119872 0.781036
vt 0.212023 0.736890
vt 0.259719 0.729073
vt 0.283420 0.877302
vt 0.235724 0.885119
vt 0.218957 0.627197
vt 0.265279 0.641106
vt 0.283420 0.686445
vt 0.176249 0.704010
vt 0.179335 0.655192
vt 0.458888 0.718552
vt 0.347708 0.718552
vt 0.346332 0.676255
vt 0.457512 0.676255
vt 0.347326 0.630670
vt 0.458505 0.630670
vt 0.514716 0.655462
vt 0.554338 0.627467
vt 0.600661 0.641376
vt 0.618802 0.686715
vt 0.595101 0.729343
vt 0.547405 0.737160
vt 0.511630 0.704280
vt 0.153053 0.878660
vt 0.153053 0.990707
vt 0.104867 0.990307
vt 0.104867 0.878261
vt 0.008785 0.633166
vt 0.119872 0.632145
vt 0.457658 0.867095
vt 0.346478 0.867095
vt 0.618802 0.877572
vt 0.571106 0.885389
vt 0.836378 0.940748
vt 0.836378 0.794416
vt 0.917801 0.790057
vt 0.917801 0.936389
vt 0.836378 0.776528
vt 0.836378 0.630513
vt 0.923647 0.624438
vt 0.923647 0.770452
vt 0.836384 0.006765
vt 0.980803 0.006765
vt 0.986156 0.087920
vt 0.841738 0.087920
vt 0.980605 0.166183
vt 0.836186 0.166183
vt 0.835998 0.601486
vt 0.835998 0.488742
vt 0.947357 0.488742
vt 0.947357 0.601486
vt 0.947545 0.179712
vt 0.947545 0.292456
vt 0.836187 0.292456
vt 0.836186 0.179712
vt 0.403101 0.450735
vt 0.498267 0.006765
vt 0.481184 0.460654
vt 0.546861 0.459392
vt 0.586434 0.006765
vt 0.625545 0.459363
vt 0.064575 0.450149
vt 0.162886 0.006765
vt 0.142612 0.460693
vt 0.220829 0.459409
vt 0.260984 0.006765
vt 0.299054 0.459587
vt 0.498267 0.617141
vt 0.346332 0.597907
vt 0.993318 0.318442
vt 0.993319 0.473522
vt 0.840815 0.475213
vt 0.835998 0.315569
vt 0.332969 0.613668
vt 0.176249 0.613668
vt 0.162886 0.618615
vt 0.006682 0.597254
vt 0.664050 0.613938
vt 0.511630 0.613938
vt 0.677413 0.610908
vt 0.677413 0.316453
vt 0.822635 0.315569
vt 0.822635 0.610025
vt 0.677413 0.918170
vt 0.677413 0.624438
vt 0.823015 0.624571
vt 0.823015 0.918303
vt 0.822823 0.301454
vt 0.677413 0.302040
vt 0.677413 0.007350
vt 0.822823 0.006765
vn 0.4325 -0.0000 0.9016
vn -0.4353 0.0000 0.9003
vn -0.9753 0.0000 0.2210
vn -0.7809 0.0000 -0.6247
vn 0.0000 1.0000 -0.0000
vn 0.7828 -0.0000 -0.6223
vn 0.9746 0.0000 0.2240
vn -0.0000 -1.0000 0.0000
vn 0.0015 -0.0000 -1.0000
vn -1.0000 0.0000 -0.0015
vn 1.0000 -0.0000 0.0015
vn 0.6247 -0.0000 -0.7809
vn 0.7809 -0.0000 0.6247
vn -0.6247 0.0000 0.7809
vn 0.9787 -0.1741 -0.1088
vn -0.1088 -0.1741 -0.9787
vn -0.9787 -0.1741 0.1088
vn 0.1088 -0.1741 0.9787
vn 0.8917 -0.4406 -0.1036
vn 0.1128 -0.4649 0.8781
vn -0.8803 -0.4670 0.0842
vn -0.0968 -0.4478 -0.8889
vn -0.9769 0.0000 0.2137
vn 0.2137 0.0000 0.9769
vn 0.9769 -0.0000 -0.2137
usemtl antorcha
s 1
f 1/1/1 2/2/1 3/3/1 4/4/1
f 4/4/2 3/3/2 5/5/2 6/6/2
f 6/7/3 5/8/3 7/9/3 8/10/3
f 8/10/4 7/9/4 9/11/4 10/12/4
f 9/13/5 11/14/5 12/15/5 13/16/5
f 3/17/5 2/18/5 14/19/5 11/14/5 9/13/5 7/20/5 5/21/5
f 15/22/6 11/23/6 14/24/6 16/25/6
f 16/25/7 14/24/7 2/26/7 1/27/7
f 1/28/8 4/29/8 6/30/8 8/31/8 10/32/8 15/33/8 16/34/8
f 17/35/9 13/36/9 12/37/9 18/38/9
f 10/12/10 9/11/10 13/39/10 17/40/10
f 11/23/11 15/22/11 18/41/11 12/42/11
f 15/33/8 10/32/8 17/43/8 18/44/8
f 19/45/12 20/46/12 21/47/12 22/48/12
f 22/49/13 21/50/13 23/51/13 24/52/13
f 24/53/14 23/54/14 25/55/14 26/56/14
f 26/56/4 25/55/4 20/57/4 19/58/4
f 22/59/8 24/60/8 26/61/8 19/62/8
f 23/63/5 21/64/5 20/65/5 25/66/5
f 27/67/15 28/68/15 29/69/15
f 29/70/16 28/71/16 30/72/16
f 30/73/17 28/74/17 31/75/17
f 31/76/18 28/77/18 27/78/18
f 27/67/19 29/69/19 32/79/19 33/80/19
f 33/81/5 32/82/5 34/83/5 35/84/5
f 31/76/20 27/78/20 33/85/20 35/86/20
f 30/73/21 31/75/21 35/87/21 34/88/21
f 29/70/22 30/72/22 34/89/22 32/90/22
f 36/91/23 37/92/23 38/93/23 39/94/23
f 40/95/24 41/96/24 42/97/24 43/98/24
f 44/99/25 45/100/25 46/101/25 47/102/25
